<mxfile host="app.diagrams.net" modified="2024-01-07T08:56:23.935Z" agent="Mozilla/5.0 (Windows NT 10.0; Win64; x64) AppleWebKit/537.36 (KHTML, like Gecko) Chrome/120.0.0.0 Safari/537.36" etag="k6gXKOnYgUNkJIvFxQ4z" version="22.1.17" type="github" pages="4">
  <diagram name="第 1 页" id="wp9xp-ZqmDfnT6AioW1U">
    <mxGraphModel dx="1122" dy="522" grid="1" gridSize="10" guides="1" tooltips="1" connect="1" arrows="1" fold="1" page="1" pageScale="1" pageWidth="827" pageHeight="1169" math="0" shadow="0">
      <root>
        <mxCell id="0" />
        <mxCell id="1" parent="0" />
        <mxCell id="UaEMdPy-mgX4DevnKJaX-2" value="" style="ellipse;whiteSpace=wrap;html=1;aspect=fixed;strokeColor=#B3B3B3;fillColor=#FFFFFF;strokeWidth=2;" vertex="1" parent="1">
          <mxGeometry x="95.01" y="430" width="260" height="260" as="geometry" />
        </mxCell>
        <mxCell id="UaEMdPy-mgX4DevnKJaX-1" value="" style="ellipse;whiteSpace=wrap;html=1;aspect=fixed;fontFamily=Helvetica;fillColor=#FFFFFF;strokeColor=#B3B3B3;strokeWidth=2;" vertex="1" parent="1">
          <mxGeometry x="170.63" y="510.63" width="108.75" height="108.75" as="geometry" />
        </mxCell>
        <mxCell id="UaEMdPy-mgX4DevnKJaX-6" value="" style="shape=actor;whiteSpace=wrap;html=1;fillColor=#1ba1e2;strokeColor=#1BA1E2;fontColor=#ffffff;" vertex="1" parent="1">
          <mxGeometry x="209.69" y="530" width="30.62" height="40" as="geometry" />
        </mxCell>
        <mxCell id="UaEMdPy-mgX4DevnKJaX-7" value="消費者" style="text;html=1;align=center;verticalAlign=middle;whiteSpace=wrap;rounded=0;fontStyle=1;fontSize=15;fontColor=#1BA1E2;" vertex="1" parent="1">
          <mxGeometry x="195.01" y="570" width="60" height="30" as="geometry" />
        </mxCell>
        <mxCell id="UaEMdPy-mgX4DevnKJaX-10" value="" style="shape=actor;whiteSpace=wrap;html=1;fillColor=#F0D300;strokeColor=#F0D300;fontColor=#000000;" vertex="1" parent="1">
          <mxGeometry x="290" y="560" width="30.62" height="40" as="geometry" />
        </mxCell>
        <mxCell id="UaEMdPy-mgX4DevnKJaX-11" value="&lt;font color=&quot;#f0d300&quot;&gt;平台開發團隊&lt;/font&gt;" style="text;html=1;align=center;verticalAlign=middle;whiteSpace=wrap;rounded=0;fontStyle=1;fontSize=15;fontColor=#1BA1E2;" vertex="1" parent="1">
          <mxGeometry x="267.81" y="610" width="75" height="30" as="geometry" />
        </mxCell>
        <mxCell id="UaEMdPy-mgX4DevnKJaX-16" value="" style="shape=actor;whiteSpace=wrap;html=1;fillColor=#F0D300;strokeColor=#F0D300;fontColor=#000000;" vertex="1" parent="1">
          <mxGeometry x="130" y="570" width="30.62" height="40" as="geometry" />
        </mxCell>
        <mxCell id="UaEMdPy-mgX4DevnKJaX-17" value="&lt;font color=&quot;#f0d300&quot;&gt;招聘方&lt;/font&gt;" style="text;html=1;align=center;verticalAlign=middle;whiteSpace=wrap;rounded=0;fontStyle=1;fontSize=15;fontColor=#1BA1E2;" vertex="1" parent="1">
          <mxGeometry x="110.31000000000003" y="610" width="70" height="30" as="geometry" />
        </mxCell>
        <mxCell id="UaEMdPy-mgX4DevnKJaX-20" value="" style="shape=actor;whiteSpace=wrap;html=1;fillColor=#F0D300;strokeColor=#F0D300;fontColor=#000000;" vertex="1" parent="1">
          <mxGeometry x="209.69" y="440.63" width="30.62" height="40" as="geometry" />
        </mxCell>
        <mxCell id="UaEMdPy-mgX4DevnKJaX-21" value="&lt;font color=&quot;#f0d300&quot;&gt;支援服務&lt;/font&gt;" style="text;html=1;align=center;verticalAlign=middle;whiteSpace=wrap;rounded=0;fontStyle=1;fontSize=15;fontColor=#1BA1E2;" vertex="1" parent="1">
          <mxGeometry x="192.66" y="480.63" width="64.69" height="30" as="geometry" />
        </mxCell>
        <mxCell id="UaEMdPy-mgX4DevnKJaX-32" value="" style="endArrow=none;dashed=1;html=1;rounded=0;curved=1;strokeColor=#B3B3B3;" edge="1" parent="1" source="UaEMdPy-mgX4DevnKJaX-30">
          <mxGeometry width="50" height="50" relative="1" as="geometry">
            <mxPoint x="195.01000000000002" y="550.63" as="sourcePoint" />
            <mxPoint x="194.64000000000001" y="480.63" as="targetPoint" />
            <Array as="points">
              <mxPoint x="155" y="490" />
              <mxPoint x="170" y="480" />
            </Array>
          </mxGeometry>
        </mxCell>
        <mxCell id="UaEMdPy-mgX4DevnKJaX-34" value="" style="endArrow=none;dashed=1;html=1;rounded=0;curved=1;strokeColor=#B3B3B3;entryX=0.5;entryY=1;entryDx=0;entryDy=0;" edge="1" parent="1" target="UaEMdPy-mgX4DevnKJaX-30">
          <mxGeometry width="50" height="50" relative="1" as="geometry">
            <mxPoint x="195.01000000000002" y="550.63" as="sourcePoint" />
            <mxPoint x="161" y="520" as="targetPoint" />
            <Array as="points">
              <mxPoint x="170" y="540" />
            </Array>
          </mxGeometry>
        </mxCell>
        <mxCell id="UaEMdPy-mgX4DevnKJaX-30" value="&lt;font color=&quot;#ffffff&quot; size=&quot;1&quot;&gt;&lt;b style=&quot;font-size: 10px;&quot;&gt;提供服務&lt;/b&gt;&lt;/font&gt;" style="ellipse;whiteSpace=wrap;html=1;strokeColor=#B3B3B3;fillColor=#B3B3B3;" vertex="1" parent="1">
          <mxGeometry x="130.62" y="490" width="49.69" height="30" as="geometry" />
        </mxCell>
        <mxCell id="UaEMdPy-mgX4DevnKJaX-36" value="" style="endArrow=none;dashed=1;html=1;rounded=0;strokeColor=#B3B3B3;exitX=1;exitY=1;exitDx=0;exitDy=0;curved=1;" edge="1" parent="1" source="UaEMdPy-mgX4DevnKJaX-37">
          <mxGeometry width="50" height="50" relative="1" as="geometry">
            <mxPoint x="260" y="480.63" as="sourcePoint" />
            <mxPoint x="306" y="550.63" as="targetPoint" />
            <Array as="points">
              <mxPoint x="320" y="530" />
            </Array>
          </mxGeometry>
        </mxCell>
        <mxCell id="UaEMdPy-mgX4DevnKJaX-38" value="" style="endArrow=none;dashed=1;html=1;rounded=0;strokeColor=#B3B3B3;curved=1;entryX=0.5;entryY=0;entryDx=0;entryDy=0;" edge="1" parent="1" target="UaEMdPy-mgX4DevnKJaX-37">
          <mxGeometry width="50" height="50" relative="1" as="geometry">
            <mxPoint x="260" y="480.63" as="sourcePoint" />
            <mxPoint x="306" y="550.63" as="targetPoint" />
            <Array as="points">
              <mxPoint x="280" y="480" />
            </Array>
          </mxGeometry>
        </mxCell>
        <mxCell id="UaEMdPy-mgX4DevnKJaX-37" value="&lt;font color=&quot;#ffffff&quot; size=&quot;1&quot;&gt;&lt;b style=&quot;&quot;&gt;維護&lt;/b&gt;&lt;/font&gt;" style="ellipse;whiteSpace=wrap;html=1;strokeColor=#B3B3B3;fillColor=#B3B3B3;" vertex="1" parent="1">
          <mxGeometry x="279.38" y="490" width="49.69" height="30" as="geometry" />
        </mxCell>
        <mxCell id="UaEMdPy-mgX4DevnKJaX-39" value="" style="endArrow=none;dashed=1;html=1;rounded=0;curved=1;strokeColor=#B3B3B3;exitX=1;exitY=0.5;exitDx=0;exitDy=0;" edge="1" parent="1" source="UaEMdPy-mgX4DevnKJaX-40">
          <mxGeometry width="50" height="50" relative="1" as="geometry">
            <mxPoint x="170" y="640" as="sourcePoint" />
            <mxPoint x="290" y="650" as="targetPoint" />
            <Array as="points">
              <mxPoint x="270" y="665" />
            </Array>
          </mxGeometry>
        </mxCell>
        <mxCell id="UaEMdPy-mgX4DevnKJaX-41" value="" style="endArrow=none;dashed=1;html=1;rounded=0;curved=1;strokeColor=#B3B3B3;" edge="1" parent="1" target="UaEMdPy-mgX4DevnKJaX-40">
          <mxGeometry width="50" height="50" relative="1" as="geometry">
            <mxPoint x="170" y="640" as="sourcePoint" />
            <mxPoint x="290" y="650" as="targetPoint" />
            <Array as="points">
              <mxPoint x="190" y="660" />
            </Array>
          </mxGeometry>
        </mxCell>
        <mxCell id="UaEMdPy-mgX4DevnKJaX-40" value="&lt;font color=&quot;#ffffff&quot; size=&quot;1&quot;&gt;&lt;b style=&quot;&quot;&gt;維護&lt;/b&gt;&lt;/font&gt;" style="ellipse;whiteSpace=wrap;html=1;strokeColor=#B3B3B3;fillColor=#B3B3B3;" vertex="1" parent="1">
          <mxGeometry x="205.31999999999996" y="650" width="49.69" height="30" as="geometry" />
        </mxCell>
      </root>
    </mxGraphModel>
  </diagram>
  <diagram id="j52YpJMBpBUHeuEpTviY" name="第 2 页">
    <mxGraphModel dx="1726" dy="803" grid="1" gridSize="10" guides="1" tooltips="1" connect="1" arrows="1" fold="1" page="1" pageScale="1" pageWidth="827" pageHeight="1169" math="0" shadow="0">
      <root>
        <mxCell id="0" />
        <mxCell id="1" parent="0" />
        <mxCell id="fK3KDWqHPFtTHNmuYz6D-1" value="&lt;font size=&quot;1&quot; color=&quot;#666666&quot; style=&quot;&quot;&gt;&lt;b style=&quot;font-size: 17px;&quot;&gt;招聘平台&lt;/b&gt;&lt;/font&gt;" style="rounded=1;whiteSpace=wrap;html=1;strokeColor=#B3B3B3;" vertex="1" parent="1">
          <mxGeometry x="330" y="520" width="120" height="60" as="geometry" />
        </mxCell>
        <mxCell id="fK3KDWqHPFtTHNmuYz6D-2" value="" style="endArrow=none;html=1;rounded=0;entryX=0.12;entryY=1.006;entryDx=0;entryDy=0;exitX=1;exitY=0.5;exitDx=0;exitDy=0;entryPerimeter=0;curved=1;strokeColor=#B3B3B3;" edge="1" parent="1" source="fK3KDWqHPFtTHNmuYz6D-3" target="fK3KDWqHPFtTHNmuYz6D-1">
          <mxGeometry width="50" height="50" relative="1" as="geometry">
            <mxPoint x="280" y="430" as="sourcePoint" />
            <mxPoint x="420" y="520" as="targetPoint" />
            <Array as="points">
              <mxPoint x="344" y="610" />
            </Array>
          </mxGeometry>
        </mxCell>
        <mxCell id="fK3KDWqHPFtTHNmuYz6D-3" value="&lt;font color=&quot;#666666&quot; style=&quot;font-size: 14px;&quot;&gt;&lt;b&gt;支援服務&lt;/b&gt;&lt;/font&gt;" style="text;html=1;strokeColor=none;fillColor=none;align=center;verticalAlign=middle;whiteSpace=wrap;rounded=0;" vertex="1" parent="1">
          <mxGeometry x="255" y="610" width="60" height="30" as="geometry" />
        </mxCell>
        <mxCell id="fK3KDWqHPFtTHNmuYz6D-4" value="&lt;b style=&quot;&quot;&gt;&lt;font style=&quot;font-size: 14px;&quot; color=&quot;#666666&quot;&gt;個人資料管理&lt;/font&gt;&lt;/b&gt;" style="text;html=1;strokeColor=none;fillColor=none;align=center;verticalAlign=middle;whiteSpace=wrap;rounded=0;" vertex="1" parent="1">
          <mxGeometry x="260" y="460" width="60" height="30" as="geometry" />
        </mxCell>
        <mxCell id="fK3KDWqHPFtTHNmuYz6D-5" value="&lt;font color=&quot;#666666&quot; style=&quot;font-size: 14px;&quot;&gt;&lt;b&gt;搜尋職缺&lt;/b&gt;&lt;/font&gt;" style="text;html=1;strokeColor=none;fillColor=none;align=center;verticalAlign=middle;whiteSpace=wrap;rounded=0;" vertex="1" parent="1">
          <mxGeometry x="475" y="625" width="60" height="30" as="geometry" />
        </mxCell>
        <mxCell id="fK3KDWqHPFtTHNmuYz6D-8" value="&lt;font color=&quot;#666666&quot; style=&quot;font-size: 14px;&quot;&gt;&lt;b&gt;職位發布與管理&lt;/b&gt;&lt;/font&gt;" style="text;html=1;strokeColor=none;fillColor=none;align=center;verticalAlign=middle;whiteSpace=wrap;rounded=0;" vertex="1" parent="1">
          <mxGeometry x="480" y="435" width="60" height="30" as="geometry" />
        </mxCell>
        <mxCell id="fK3KDWqHPFtTHNmuYz6D-9" value="" style="endArrow=none;html=1;rounded=0;entryX=1;entryY=0.5;entryDx=0;entryDy=0;exitX=0.119;exitY=0.002;exitDx=0;exitDy=0;exitPerimeter=0;curved=1;strokeColor=#B3B3B3;" edge="1" parent="1" source="fK3KDWqHPFtTHNmuYz6D-1" target="fK3KDWqHPFtTHNmuYz6D-4">
          <mxGeometry width="50" height="50" relative="1" as="geometry">
            <mxPoint x="360" y="530" as="sourcePoint" />
            <mxPoint x="420" y="520" as="targetPoint" />
            <Array as="points">
              <mxPoint x="340" y="500" />
            </Array>
          </mxGeometry>
        </mxCell>
        <mxCell id="fK3KDWqHPFtTHNmuYz6D-10" value="" style="endArrow=none;html=1;rounded=0;entryX=0;entryY=0.5;entryDx=0;entryDy=0;exitX=0.831;exitY=0.003;exitDx=0;exitDy=0;exitPerimeter=0;curved=1;strokeColor=#B3B3B3;" edge="1" parent="1" source="fK3KDWqHPFtTHNmuYz6D-1" target="fK3KDWqHPFtTHNmuYz6D-8">
          <mxGeometry width="50" height="50" relative="1" as="geometry">
            <mxPoint x="420" y="520" as="sourcePoint" />
            <mxPoint x="420" y="520" as="targetPoint" />
            <Array as="points">
              <mxPoint x="430" y="485" />
            </Array>
          </mxGeometry>
        </mxCell>
        <mxCell id="fK3KDWqHPFtTHNmuYz6D-11" value="" style="endArrow=none;html=1;rounded=0;entryX=0;entryY=0.5;entryDx=0;entryDy=0;exitX=0.844;exitY=1.019;exitDx=0;exitDy=0;exitPerimeter=0;curved=1;strokeColor=#B3B3B3;" edge="1" parent="1" source="fK3KDWqHPFtTHNmuYz6D-1" target="fK3KDWqHPFtTHNmuYz6D-5">
          <mxGeometry width="50" height="50" relative="1" as="geometry">
            <mxPoint x="400" y="680" as="sourcePoint" />
            <mxPoint x="420" y="520" as="targetPoint" />
            <Array as="points">
              <mxPoint x="440" y="620" />
            </Array>
          </mxGeometry>
        </mxCell>
        <mxCell id="fK3KDWqHPFtTHNmuYz6D-13" value="&lt;font size=&quot;1&quot; color=&quot;#ea6b66&quot;&gt;&lt;b style=&quot;font-size: 13px;&quot;&gt;註冊帳號&lt;/b&gt;&lt;/font&gt;" style="text;html=1;strokeColor=none;fillColor=none;align=center;verticalAlign=middle;whiteSpace=wrap;rounded=0;" vertex="1" parent="1">
          <mxGeometry x="170" y="410" width="60" height="30" as="geometry" />
        </mxCell>
        <mxCell id="fK3KDWqHPFtTHNmuYz6D-14" value="&lt;font size=&quot;1&quot; color=&quot;#ea6b66&quot;&gt;&lt;b style=&quot;font-size: 13px;&quot;&gt;修改編輯個人資訊&lt;/b&gt;&lt;/font&gt;" style="text;html=1;strokeColor=none;fillColor=none;align=center;verticalAlign=middle;whiteSpace=wrap;rounded=0;" vertex="1" parent="1">
          <mxGeometry x="170" y="460" width="60" height="30" as="geometry" />
        </mxCell>
        <mxCell id="fK3KDWqHPFtTHNmuYz6D-15" value="&lt;font size=&quot;1&quot; color=&quot;#ea6b66&quot;&gt;&lt;b style=&quot;font-size: 13px;&quot;&gt;編輯簡歷&lt;/b&gt;&lt;/font&gt;" style="text;html=1;strokeColor=none;fillColor=none;align=center;verticalAlign=middle;whiteSpace=wrap;rounded=0;" vertex="1" parent="1">
          <mxGeometry x="170" y="510" width="60" height="30" as="geometry" />
        </mxCell>
        <mxCell id="fK3KDWqHPFtTHNmuYz6D-16" value="" style="endArrow=none;html=1;rounded=0;entryX=1;entryY=0.5;entryDx=0;entryDy=0;exitX=0;exitY=0.5;exitDx=0;exitDy=0;curved=1;strokeColor=#EA6B66;" edge="1" parent="1" source="fK3KDWqHPFtTHNmuYz6D-4" target="fK3KDWqHPFtTHNmuYz6D-13">
          <mxGeometry width="50" height="50" relative="1" as="geometry">
            <mxPoint x="400" y="570" as="sourcePoint" />
            <mxPoint x="450" y="520" as="targetPoint" />
            <Array as="points">
              <mxPoint x="260" y="440" />
            </Array>
          </mxGeometry>
        </mxCell>
        <mxCell id="fK3KDWqHPFtTHNmuYz6D-18" value="" style="endArrow=none;html=1;rounded=0;entryX=1;entryY=0.5;entryDx=0;entryDy=0;exitX=0;exitY=0.5;exitDx=0;exitDy=0;curved=1;strokeColor=#EA6B66;" edge="1" parent="1" source="fK3KDWqHPFtTHNmuYz6D-4" target="fK3KDWqHPFtTHNmuYz6D-14">
          <mxGeometry width="50" height="50" relative="1" as="geometry">
            <mxPoint x="400" y="570" as="sourcePoint" />
            <mxPoint x="450" y="520" as="targetPoint" />
          </mxGeometry>
        </mxCell>
        <mxCell id="fK3KDWqHPFtTHNmuYz6D-19" value="" style="endArrow=none;html=1;rounded=0;entryX=1;entryY=0.5;entryDx=0;entryDy=0;exitX=0;exitY=0.5;exitDx=0;exitDy=0;curved=1;strokeColor=#EA6B66;" edge="1" parent="1" source="fK3KDWqHPFtTHNmuYz6D-4" target="fK3KDWqHPFtTHNmuYz6D-15">
          <mxGeometry width="50" height="50" relative="1" as="geometry">
            <mxPoint x="400" y="570" as="sourcePoint" />
            <mxPoint x="450" y="520" as="targetPoint" />
            <Array as="points">
              <mxPoint x="260" y="520" />
            </Array>
          </mxGeometry>
        </mxCell>
        <mxCell id="fK3KDWqHPFtTHNmuYz6D-20" value="&lt;b&gt;&lt;font style=&quot;font-size: 13px;&quot; color=&quot;#b5739d&quot;&gt;編輯職缺相關訊息&lt;/font&gt;&lt;/b&gt;" style="text;html=1;strokeColor=none;fillColor=none;align=center;verticalAlign=middle;whiteSpace=wrap;rounded=0;" vertex="1" parent="1">
          <mxGeometry x="575" y="325" width="60" height="30" as="geometry" />
        </mxCell>
        <mxCell id="fK3KDWqHPFtTHNmuYz6D-21" value="&lt;b&gt;&lt;font color=&quot;#ea6b66&quot;&gt;身分驗證&lt;/font&gt;&lt;/b&gt;" style="text;html=1;strokeColor=none;fillColor=none;align=center;verticalAlign=middle;whiteSpace=wrap;rounded=0;" vertex="1" parent="1">
          <mxGeometry x="90" y="410" width="60" height="30" as="geometry" />
        </mxCell>
        <mxCell id="fK3KDWqHPFtTHNmuYz6D-22" value="" style="endArrow=none;html=1;rounded=0;entryX=1;entryY=0.5;entryDx=0;entryDy=0;exitX=0;exitY=0.5;exitDx=0;exitDy=0;curved=1;strokeColor=#EA6B66;" edge="1" parent="1" source="fK3KDWqHPFtTHNmuYz6D-13" target="fK3KDWqHPFtTHNmuYz6D-21">
          <mxGeometry width="50" height="50" relative="1" as="geometry">
            <mxPoint x="150" y="459.05" as="sourcePoint" />
            <mxPoint x="120" y="459.05" as="targetPoint" />
          </mxGeometry>
        </mxCell>
        <mxCell id="K-P-96EdpfI6lAYefI9N-1" value="&lt;b&gt;&lt;font style=&quot;font-size: 13px;&quot; color=&quot;#b5739d&quot;&gt;回收應聘者資料&lt;/font&gt;&lt;/b&gt;" style="text;html=1;strokeColor=none;fillColor=none;align=center;verticalAlign=middle;whiteSpace=wrap;rounded=0;" vertex="1" parent="1">
          <mxGeometry x="570" y="435" width="70" height="30" as="geometry" />
        </mxCell>
        <mxCell id="K-P-96EdpfI6lAYefI9N-2" value="&lt;b&gt;&lt;font color=&quot;#7ea6e0&quot; style=&quot;font-size: 13px;&quot;&gt;關鍵字搜尋&lt;/font&gt;&lt;/b&gt;" style="text;html=1;strokeColor=none;fillColor=none;align=center;verticalAlign=middle;whiteSpace=wrap;rounded=0;" vertex="1" parent="1">
          <mxGeometry x="570" y="585" width="75" height="30" as="geometry" />
        </mxCell>
        <mxCell id="K-P-96EdpfI6lAYefI9N-3" value="&lt;b&gt;&lt;font color=&quot;#7ea6e0&quot; style=&quot;font-size: 13px;&quot;&gt;條件篩選&lt;/font&gt;&lt;/b&gt;" style="text;html=1;strokeColor=none;fillColor=none;align=center;verticalAlign=middle;whiteSpace=wrap;rounded=0;" vertex="1" parent="1">
          <mxGeometry x="570" y="665" width="60" height="30" as="geometry" />
        </mxCell>
        <mxCell id="K-P-96EdpfI6lAYefI9N-4" value="&lt;b&gt;&lt;font style=&quot;font-size: 13px;&quot; color=&quot;#b5739d&quot;&gt;即時通訊&lt;/font&gt;&lt;/b&gt;" style="text;html=1;strokeColor=none;fillColor=none;align=center;verticalAlign=middle;whiteSpace=wrap;rounded=0;" vertex="1" parent="1">
          <mxGeometry x="570" y="525" width="60" height="30" as="geometry" />
        </mxCell>
        <mxCell id="K-P-96EdpfI6lAYefI9N-5" value="&lt;b&gt;&lt;font style=&quot;font-size: 13px;&quot; color=&quot;#ffb570&quot;&gt;求職者培訓&lt;/font&gt;&lt;/b&gt;" style="text;html=1;strokeColor=none;fillColor=none;align=center;verticalAlign=middle;whiteSpace=wrap;rounded=0;" vertex="1" parent="1">
          <mxGeometry x="170" y="640" width="70" height="30" as="geometry" />
        </mxCell>
        <mxCell id="K-P-96EdpfI6lAYefI9N-6" value="&lt;b&gt;&lt;font style=&quot;font-size: 13px;&quot; color=&quot;#ffb570&quot;&gt;簡歷撰寫服務&lt;/font&gt;&lt;/b&gt;" style="text;html=1;strokeColor=none;fillColor=none;align=center;verticalAlign=middle;whiteSpace=wrap;rounded=0;" vertex="1" parent="1">
          <mxGeometry x="175" y="580" width="60" height="30" as="geometry" />
        </mxCell>
        <mxCell id="K-P-96EdpfI6lAYefI9N-7" value="&lt;b&gt;&lt;font color=&quot;#ffb570&quot;&gt;資源瀏覽&lt;/font&gt;&lt;/b&gt;" style="text;html=1;strokeColor=none;fillColor=none;align=center;verticalAlign=middle;whiteSpace=wrap;rounded=0;" vertex="1" parent="1">
          <mxGeometry x="85" y="610" width="60" height="30" as="geometry" />
        </mxCell>
        <mxCell id="K-P-96EdpfI6lAYefI9N-8" value="&lt;b&gt;&lt;font color=&quot;#ffb570&quot;&gt;課程報名&lt;/font&gt;&lt;/b&gt;" style="text;html=1;strokeColor=none;fillColor=none;align=center;verticalAlign=middle;whiteSpace=wrap;rounded=0;" vertex="1" parent="1">
          <mxGeometry x="85" y="670" width="60" height="30" as="geometry" />
        </mxCell>
        <mxCell id="K-P-96EdpfI6lAYefI9N-10" value="" style="endArrow=none;html=1;rounded=0;entryX=0;entryY=0.5;entryDx=0;entryDy=0;exitX=1;exitY=0.5;exitDx=0;exitDy=0;curved=1;strokeColor=#FFB570;" edge="1" parent="1" source="K-P-96EdpfI6lAYefI9N-6" target="fK3KDWqHPFtTHNmuYz6D-3">
          <mxGeometry width="50" height="50" relative="1" as="geometry">
            <mxPoint x="345" y="580" as="sourcePoint" />
            <mxPoint x="395" y="530" as="targetPoint" />
            <Array as="points">
              <mxPoint x="255" y="610" />
            </Array>
          </mxGeometry>
        </mxCell>
        <mxCell id="K-P-96EdpfI6lAYefI9N-11" value="" style="endArrow=none;html=1;rounded=0;entryX=0;entryY=0.5;entryDx=0;entryDy=0;exitX=1;exitY=0.5;exitDx=0;exitDy=0;curved=1;strokeColor=#FFB570;" edge="1" parent="1" source="K-P-96EdpfI6lAYefI9N-5" target="fK3KDWqHPFtTHNmuYz6D-3">
          <mxGeometry width="50" height="50" relative="1" as="geometry">
            <mxPoint x="345" y="580" as="sourcePoint" />
            <mxPoint x="395" y="530" as="targetPoint" />
            <Array as="points">
              <mxPoint x="255" y="650" />
            </Array>
          </mxGeometry>
        </mxCell>
        <mxCell id="K-P-96EdpfI6lAYefI9N-12" value="" style="endArrow=none;html=1;rounded=0;entryX=1;entryY=0.5;entryDx=0;entryDy=0;exitX=0;exitY=0.5;exitDx=0;exitDy=0;curved=1;strokeColor=#FFB570;" edge="1" parent="1" source="K-P-96EdpfI6lAYefI9N-5" target="K-P-96EdpfI6lAYefI9N-7">
          <mxGeometry width="50" height="50" relative="1" as="geometry">
            <mxPoint x="345" y="580" as="sourcePoint" />
            <mxPoint x="395" y="530" as="targetPoint" />
            <Array as="points">
              <mxPoint x="170" y="640" />
            </Array>
          </mxGeometry>
        </mxCell>
        <mxCell id="K-P-96EdpfI6lAYefI9N-14" value="" style="endArrow=none;html=1;rounded=0;exitX=1;exitY=0.5;exitDx=0;exitDy=0;entryX=0;entryY=0.5;entryDx=0;entryDy=0;curved=1;strokeColor=#FFB570;" edge="1" parent="1" source="K-P-96EdpfI6lAYefI9N-8" target="K-P-96EdpfI6lAYefI9N-5">
          <mxGeometry width="50" height="50" relative="1" as="geometry">
            <mxPoint x="345" y="580" as="sourcePoint" />
            <mxPoint x="395" y="530" as="targetPoint" />
            <Array as="points">
              <mxPoint x="170" y="670" />
            </Array>
          </mxGeometry>
        </mxCell>
        <mxCell id="K-P-96EdpfI6lAYefI9N-16" value="" style="endArrow=none;html=1;rounded=0;exitX=1;exitY=0.5;exitDx=0;exitDy=0;entryX=0;entryY=0.5;entryDx=0;entryDy=0;strokeColor=#B5739D;curved=1;" edge="1" parent="1" source="fK3KDWqHPFtTHNmuYz6D-8" target="fK3KDWqHPFtTHNmuYz6D-20">
          <mxGeometry width="50" height="50" relative="1" as="geometry">
            <mxPoint x="460" y="625" as="sourcePoint" />
            <mxPoint x="510" y="575" as="targetPoint" />
            <Array as="points">
              <mxPoint x="540" y="355" />
            </Array>
          </mxGeometry>
        </mxCell>
        <mxCell id="K-P-96EdpfI6lAYefI9N-17" value="" style="endArrow=none;html=1;rounded=0;exitX=1;exitY=0.5;exitDx=0;exitDy=0;entryX=0;entryY=0.5;entryDx=0;entryDy=0;strokeColor=#B5739D;curved=1;" edge="1" parent="1" source="fK3KDWqHPFtTHNmuYz6D-8" target="K-P-96EdpfI6lAYefI9N-1">
          <mxGeometry width="50" height="50" relative="1" as="geometry">
            <mxPoint x="460" y="625" as="sourcePoint" />
            <mxPoint x="510" y="575" as="targetPoint" />
          </mxGeometry>
        </mxCell>
        <mxCell id="K-P-96EdpfI6lAYefI9N-18" value="" style="endArrow=none;html=1;rounded=0;exitX=1;exitY=0.5;exitDx=0;exitDy=0;entryX=0;entryY=0.5;entryDx=0;entryDy=0;strokeColor=#B5739D;curved=1;" edge="1" parent="1" source="fK3KDWqHPFtTHNmuYz6D-8" target="K-P-96EdpfI6lAYefI9N-4">
          <mxGeometry width="50" height="50" relative="1" as="geometry">
            <mxPoint x="460" y="625" as="sourcePoint" />
            <mxPoint x="510" y="575" as="targetPoint" />
            <Array as="points">
              <mxPoint x="540" y="540" />
            </Array>
          </mxGeometry>
        </mxCell>
        <mxCell id="K-P-96EdpfI6lAYefI9N-19" value="&lt;font color=&quot;#b5739d&quot;&gt;&lt;b&gt;公司信息&lt;/b&gt;&lt;/font&gt;" style="text;html=1;strokeColor=none;fillColor=none;align=center;verticalAlign=middle;whiteSpace=wrap;rounded=0;" vertex="1" parent="1">
          <mxGeometry x="690" y="255" width="60" height="30" as="geometry" />
        </mxCell>
        <mxCell id="K-P-96EdpfI6lAYefI9N-20" value="&lt;b&gt;&lt;font color=&quot;#b5739d&quot;&gt;所需技能&lt;/font&gt;&lt;/b&gt;" style="text;html=1;strokeColor=none;fillColor=none;align=center;verticalAlign=middle;whiteSpace=wrap;rounded=0;" vertex="1" parent="1">
          <mxGeometry x="690" y="295" width="60" height="30" as="geometry" />
        </mxCell>
        <mxCell id="K-P-96EdpfI6lAYefI9N-21" value="&lt;b&gt;&lt;font color=&quot;#b5739d&quot;&gt;薪資待遇&lt;/font&gt;&lt;/b&gt;" style="text;html=1;strokeColor=none;fillColor=none;align=center;verticalAlign=middle;whiteSpace=wrap;rounded=0;" vertex="1" parent="1">
          <mxGeometry x="690" y="365" width="60" height="30" as="geometry" />
        </mxCell>
        <mxCell id="K-P-96EdpfI6lAYefI9N-22" value="&lt;b&gt;&lt;font color=&quot;#b5739d&quot;&gt;工作內容&lt;/font&gt;&lt;/b&gt;" style="text;html=1;strokeColor=none;fillColor=none;align=center;verticalAlign=middle;whiteSpace=wrap;rounded=0;" vertex="1" parent="1">
          <mxGeometry x="690" y="325" width="60" height="30" as="geometry" />
        </mxCell>
        <mxCell id="K-P-96EdpfI6lAYefI9N-24" value="&lt;b&gt;&lt;font color=&quot;#b5739d&quot;&gt;公司福利&lt;/font&gt;&lt;/b&gt;" style="text;html=1;strokeColor=none;fillColor=none;align=center;verticalAlign=middle;whiteSpace=wrap;rounded=0;" vertex="1" parent="1">
          <mxGeometry x="690" y="395" width="60" height="30" as="geometry" />
        </mxCell>
        <mxCell id="K-P-96EdpfI6lAYefI9N-26" value="" style="endArrow=none;html=1;rounded=0;entryX=1;entryY=0.5;entryDx=0;entryDy=0;exitX=0;exitY=0.5;exitDx=0;exitDy=0;strokeColor=#B5739D;curved=1;" edge="1" parent="1" source="K-P-96EdpfI6lAYefI9N-19" target="fK3KDWqHPFtTHNmuYz6D-20">
          <mxGeometry width="50" height="50" relative="1" as="geometry">
            <mxPoint x="590" y="435" as="sourcePoint" />
            <mxPoint x="640" y="385" as="targetPoint" />
            <Array as="points">
              <mxPoint x="640" y="285" />
            </Array>
          </mxGeometry>
        </mxCell>
        <mxCell id="K-P-96EdpfI6lAYefI9N-27" value="" style="endArrow=none;html=1;rounded=0;exitX=1;exitY=0.5;exitDx=0;exitDy=0;entryX=0;entryY=0.5;entryDx=0;entryDy=0;strokeColor=#B5739D;curved=1;" edge="1" parent="1" source="fK3KDWqHPFtTHNmuYz6D-20" target="K-P-96EdpfI6lAYefI9N-20">
          <mxGeometry width="50" height="50" relative="1" as="geometry">
            <mxPoint x="590" y="435" as="sourcePoint" />
            <mxPoint x="640" y="385" as="targetPoint" />
            <Array as="points">
              <mxPoint x="635" y="310" />
            </Array>
          </mxGeometry>
        </mxCell>
        <mxCell id="K-P-96EdpfI6lAYefI9N-28" value="" style="endArrow=none;html=1;rounded=0;exitX=1;exitY=0.5;exitDx=0;exitDy=0;entryX=0;entryY=0.5;entryDx=0;entryDy=0;strokeColor=#B5739D;curved=1;" edge="1" parent="1" source="fK3KDWqHPFtTHNmuYz6D-20" target="K-P-96EdpfI6lAYefI9N-22">
          <mxGeometry width="50" height="50" relative="1" as="geometry">
            <mxPoint x="590" y="435" as="sourcePoint" />
            <mxPoint x="640" y="385" as="targetPoint" />
          </mxGeometry>
        </mxCell>
        <mxCell id="K-P-96EdpfI6lAYefI9N-29" value="" style="endArrow=none;html=1;rounded=0;exitX=1;exitY=0.5;exitDx=0;exitDy=0;entryX=0;entryY=0.5;entryDx=0;entryDy=0;strokeColor=#B5739D;curved=1;" edge="1" parent="1" source="fK3KDWqHPFtTHNmuYz6D-20" target="K-P-96EdpfI6lAYefI9N-21">
          <mxGeometry width="50" height="50" relative="1" as="geometry">
            <mxPoint x="640" y="345" as="sourcePoint" />
            <mxPoint x="640" y="385" as="targetPoint" />
            <Array as="points">
              <mxPoint x="635" y="375" />
            </Array>
          </mxGeometry>
        </mxCell>
        <mxCell id="K-P-96EdpfI6lAYefI9N-30" value="" style="endArrow=none;html=1;rounded=0;exitX=1;exitY=0.5;exitDx=0;exitDy=0;entryX=0;entryY=0.5;entryDx=0;entryDy=0;strokeColor=#B5739D;curved=1;" edge="1" parent="1" source="fK3KDWqHPFtTHNmuYz6D-20" target="K-P-96EdpfI6lAYefI9N-24">
          <mxGeometry width="50" height="50" relative="1" as="geometry">
            <mxPoint x="590" y="435" as="sourcePoint" />
            <mxPoint x="640" y="385" as="targetPoint" />
            <Array as="points">
              <mxPoint x="635" y="405" />
            </Array>
          </mxGeometry>
        </mxCell>
        <mxCell id="K-P-96EdpfI6lAYefI9N-31" value="&lt;b&gt;&lt;font color=&quot;#b5739d&quot;&gt;篩選簡歷&lt;/font&gt;&lt;/b&gt;" style="text;html=1;strokeColor=none;fillColor=none;align=center;verticalAlign=middle;whiteSpace=wrap;rounded=0;" vertex="1" parent="1">
          <mxGeometry x="670" y="435" width="60" height="30" as="geometry" />
        </mxCell>
        <mxCell id="K-P-96EdpfI6lAYefI9N-32" value="" style="endArrow=none;html=1;rounded=0;exitX=1;exitY=0.5;exitDx=0;exitDy=0;entryX=0;entryY=0.5;entryDx=0;entryDy=0;strokeColor=#B5739D;" edge="1" parent="1" source="K-P-96EdpfI6lAYefI9N-1" target="K-P-96EdpfI6lAYefI9N-31">
          <mxGeometry width="50" height="50" relative="1" as="geometry">
            <mxPoint x="530" y="525" as="sourcePoint" />
            <mxPoint x="580" y="475" as="targetPoint" />
          </mxGeometry>
        </mxCell>
        <mxCell id="K-P-96EdpfI6lAYefI9N-33" value="&lt;b&gt;&lt;font color=&quot;#b5739d&quot;&gt;諮詢&lt;/font&gt;&lt;/b&gt;" style="text;html=1;strokeColor=none;fillColor=none;align=center;verticalAlign=middle;whiteSpace=wrap;rounded=0;" vertex="1" parent="1">
          <mxGeometry x="660" y="495" width="60" height="30" as="geometry" />
        </mxCell>
        <mxCell id="K-P-96EdpfI6lAYefI9N-34" value="&lt;b&gt;&lt;font color=&quot;#b5739d&quot;&gt;面試&lt;/font&gt;&lt;/b&gt;" style="text;html=1;strokeColor=none;fillColor=none;align=center;verticalAlign=middle;whiteSpace=wrap;rounded=0;" vertex="1" parent="1">
          <mxGeometry x="660" y="550" width="60" height="30" as="geometry" />
        </mxCell>
        <mxCell id="K-P-96EdpfI6lAYefI9N-35" value="" style="endArrow=none;html=1;rounded=0;exitX=1;exitY=0.5;exitDx=0;exitDy=0;entryX=0;entryY=0.5;entryDx=0;entryDy=0;strokeColor=#B5739D;curved=1;" edge="1" parent="1" source="K-P-96EdpfI6lAYefI9N-4" target="K-P-96EdpfI6lAYefI9N-33">
          <mxGeometry width="50" height="50" relative="1" as="geometry">
            <mxPoint x="530" y="505" as="sourcePoint" />
            <mxPoint x="580" y="455" as="targetPoint" />
            <Array as="points">
              <mxPoint x="630" y="515" />
            </Array>
          </mxGeometry>
        </mxCell>
        <mxCell id="K-P-96EdpfI6lAYefI9N-36" value="" style="endArrow=none;html=1;rounded=0;exitX=1;exitY=0.5;exitDx=0;exitDy=0;entryX=0;entryY=0.5;entryDx=0;entryDy=0;strokeColor=#B5739D;curved=1;" edge="1" parent="1" source="K-P-96EdpfI6lAYefI9N-4" target="K-P-96EdpfI6lAYefI9N-34">
          <mxGeometry width="50" height="50" relative="1" as="geometry">
            <mxPoint x="530" y="505" as="sourcePoint" />
            <mxPoint x="580" y="455" as="targetPoint" />
            <Array as="points">
              <mxPoint x="630" y="565" />
            </Array>
          </mxGeometry>
        </mxCell>
        <mxCell id="K-P-96EdpfI6lAYefI9N-37" value="" style="endArrow=none;html=1;rounded=0;entryX=1;entryY=0.5;entryDx=0;entryDy=0;exitX=0;exitY=0.5;exitDx=0;exitDy=0;curved=1;strokeColor=#7EA6E0;" edge="1" parent="1" source="K-P-96EdpfI6lAYefI9N-2" target="fK3KDWqHPFtTHNmuYz6D-5">
          <mxGeometry width="50" height="50" relative="1" as="geometry">
            <mxPoint x="485" y="635" as="sourcePoint" />
            <mxPoint x="535" y="585" as="targetPoint" />
            <Array as="points">
              <mxPoint x="535" y="610" />
            </Array>
          </mxGeometry>
        </mxCell>
        <mxCell id="K-P-96EdpfI6lAYefI9N-38" value="" style="endArrow=none;html=1;rounded=0;exitX=1;exitY=0.5;exitDx=0;exitDy=0;entryX=0;entryY=0.5;entryDx=0;entryDy=0;curved=1;strokeColor=#7EA6E0;" edge="1" parent="1" source="fK3KDWqHPFtTHNmuYz6D-5" target="K-P-96EdpfI6lAYefI9N-3">
          <mxGeometry width="50" height="50" relative="1" as="geometry">
            <mxPoint x="535" y="635" as="sourcePoint" />
            <mxPoint x="585" y="585" as="targetPoint" />
            <Array as="points">
              <mxPoint x="535" y="675" />
            </Array>
          </mxGeometry>
        </mxCell>
        <mxCell id="K-P-96EdpfI6lAYefI9N-39" value="&lt;font color=&quot;#7ea6e0&quot;&gt;&lt;b&gt;地域&lt;/b&gt;&lt;/font&gt;" style="text;html=1;strokeColor=none;fillColor=none;align=center;verticalAlign=middle;whiteSpace=wrap;rounded=0;" vertex="1" parent="1">
          <mxGeometry x="665" y="625" width="60" height="30" as="geometry" />
        </mxCell>
        <mxCell id="K-P-96EdpfI6lAYefI9N-40" value="&lt;font color=&quot;#7ea6e0&quot;&gt;&lt;b&gt;薪資&lt;/b&gt;&lt;/font&gt;" style="text;html=1;strokeColor=none;fillColor=none;align=center;verticalAlign=middle;whiteSpace=wrap;rounded=0;" vertex="1" parent="1">
          <mxGeometry x="665" y="655" width="60" height="30" as="geometry" />
        </mxCell>
        <mxCell id="K-P-96EdpfI6lAYefI9N-41" value="&lt;b&gt;&lt;font color=&quot;#7ea6e0&quot;&gt;工作待遇&lt;/font&gt;&lt;/b&gt;" style="text;html=1;strokeColor=none;fillColor=none;align=center;verticalAlign=middle;whiteSpace=wrap;rounded=0;" vertex="1" parent="1">
          <mxGeometry x="665" y="715" width="60" height="30" as="geometry" />
        </mxCell>
        <mxCell id="K-P-96EdpfI6lAYefI9N-42" value="&lt;b&gt;&lt;font color=&quot;#7ea6e0&quot;&gt;所需技能&lt;/font&gt;&lt;/b&gt;" style="text;html=1;strokeColor=none;fillColor=none;align=center;verticalAlign=middle;whiteSpace=wrap;rounded=0;" vertex="1" parent="1">
          <mxGeometry x="665" y="685" width="60" height="30" as="geometry" />
        </mxCell>
        <mxCell id="K-P-96EdpfI6lAYefI9N-43" value="" style="endArrow=none;html=1;rounded=0;exitX=1;exitY=0.5;exitDx=0;exitDy=0;entryX=0;entryY=0.5;entryDx=0;entryDy=0;curved=1;strokeColor=#7EA6E0;" edge="1" parent="1" source="K-P-96EdpfI6lAYefI9N-3" target="K-P-96EdpfI6lAYefI9N-39">
          <mxGeometry width="50" height="50" relative="1" as="geometry">
            <mxPoint x="535" y="675" as="sourcePoint" />
            <mxPoint x="585" y="625" as="targetPoint" />
            <Array as="points">
              <mxPoint x="635" y="655" />
            </Array>
          </mxGeometry>
        </mxCell>
        <mxCell id="K-P-96EdpfI6lAYefI9N-44" value="" style="endArrow=none;html=1;rounded=0;exitX=1;exitY=0.5;exitDx=0;exitDy=0;entryX=0;entryY=0.5;entryDx=0;entryDy=0;curved=1;strokeColor=#7EA6E0;" edge="1" parent="1" source="K-P-96EdpfI6lAYefI9N-3" target="K-P-96EdpfI6lAYefI9N-40">
          <mxGeometry width="50" height="50" relative="1" as="geometry">
            <mxPoint x="640" y="690" as="sourcePoint" />
            <mxPoint x="665" y="650" as="targetPoint" />
            <Array as="points">
              <mxPoint x="635" y="670" />
            </Array>
          </mxGeometry>
        </mxCell>
        <mxCell id="K-P-96EdpfI6lAYefI9N-45" value="" style="endArrow=none;html=1;rounded=0;exitX=1;exitY=0.5;exitDx=0;exitDy=0;entryX=0;entryY=0.5;entryDx=0;entryDy=0;curved=1;strokeColor=#7EA6E0;" edge="1" parent="1" source="K-P-96EdpfI6lAYefI9N-3" target="K-P-96EdpfI6lAYefI9N-42">
          <mxGeometry width="50" height="50" relative="1" as="geometry">
            <mxPoint x="650" y="700" as="sourcePoint" />
            <mxPoint x="675" y="660" as="targetPoint" />
            <Array as="points">
              <mxPoint x="635" y="700" />
            </Array>
          </mxGeometry>
        </mxCell>
        <mxCell id="K-P-96EdpfI6lAYefI9N-46" value="" style="endArrow=none;html=1;rounded=0;exitX=1;exitY=0.5;exitDx=0;exitDy=0;entryX=0;entryY=0.5;entryDx=0;entryDy=0;curved=1;strokeColor=#7EA6E0;" edge="1" parent="1" source="K-P-96EdpfI6lAYefI9N-3" target="K-P-96EdpfI6lAYefI9N-41">
          <mxGeometry width="50" height="50" relative="1" as="geometry">
            <mxPoint x="660" y="710" as="sourcePoint" />
            <mxPoint x="685" y="670" as="targetPoint" />
            <Array as="points">
              <mxPoint x="630" y="715" />
            </Array>
          </mxGeometry>
        </mxCell>
      </root>
    </mxGraphModel>
  </diagram>
  <diagram id="1Q3pxMTFyLBPHZiaXWrR" name="第 3 页">
    <mxGraphModel dx="1949" dy="522" grid="1" gridSize="10" guides="1" tooltips="1" connect="1" arrows="1" fold="1" page="1" pageScale="1" pageWidth="827" pageHeight="1169" math="0" shadow="0">
      <root>
        <mxCell id="0" />
        <mxCell id="1" parent="0" />
        <mxCell id="MZkEjCE8ApAS42z6n0Dc-1" value="" style="whiteSpace=wrap;html=1;aspect=fixed;" vertex="1" parent="1">
          <mxGeometry x="95" y="220" width="530" height="530" as="geometry" />
        </mxCell>
        <mxCell id="MZkEjCE8ApAS42z6n0Dc-2" value="求職者" style="shape=umlActor;verticalLabelPosition=bottom;verticalAlign=top;html=1;outlineConnect=0;" vertex="1" parent="1">
          <mxGeometry x="10" y="350" width="30" height="60" as="geometry" />
        </mxCell>
        <mxCell id="MZkEjCE8ApAS42z6n0Dc-3" value="招聘方" style="shape=umlActor;verticalLabelPosition=bottom;verticalAlign=top;html=1;outlineConnect=0;" vertex="1" parent="1">
          <mxGeometry x="20" y="500" width="30" height="60" as="geometry" />
        </mxCell>
        <mxCell id="MZkEjCE8ApAS42z6n0Dc-5" value="管理人員" style="shape=umlActor;verticalLabelPosition=bottom;verticalAlign=top;html=1;outlineConnect=0;" vertex="1" parent="1">
          <mxGeometry x="690" y="415" width="30" height="60" as="geometry" />
        </mxCell>
        <mxCell id="MZkEjCE8ApAS42z6n0Dc-6" value="搜尋職缺" style="ellipse;whiteSpace=wrap;html=1;" vertex="1" parent="1">
          <mxGeometry x="220" y="370" width="70" height="50" as="geometry" />
        </mxCell>
        <mxCell id="MZkEjCE8ApAS42z6n0Dc-7" value="發布職缺" style="ellipse;whiteSpace=wrap;html=1;" vertex="1" parent="1">
          <mxGeometry x="270" y="610" width="70" height="50" as="geometry" />
        </mxCell>
        <mxCell id="MZkEjCE8ApAS42z6n0Dc-8" value="&lt;font style=&quot;font-size: 11px;&quot;&gt;管理個人信息&lt;/font&gt;" style="ellipse;whiteSpace=wrap;html=1;" vertex="1" parent="1">
          <mxGeometry x="180" y="290" width="70" height="50" as="geometry" />
        </mxCell>
        <mxCell id="MZkEjCE8ApAS42z6n0Dc-10" value="登入" style="ellipse;whiteSpace=wrap;html=1;" vertex="1" parent="1">
          <mxGeometry x="395" y="460" width="70" height="50" as="geometry" />
        </mxCell>
        <mxCell id="MZkEjCE8ApAS42z6n0Dc-11" value="上傳簡歷" style="ellipse;whiteSpace=wrap;html=1;" vertex="1" parent="1">
          <mxGeometry x="307.5" y="270" width="70" height="50" as="geometry" />
        </mxCell>
        <mxCell id="MZkEjCE8ApAS42z6n0Dc-13" value="支援服務" style="ellipse;whiteSpace=wrap;html=1;" vertex="1" parent="1">
          <mxGeometry x="510" y="420" width="70" height="50" as="geometry" />
        </mxCell>
        <mxCell id="MZkEjCE8ApAS42z6n0Dc-14" value="即時訊息" style="ellipse;whiteSpace=wrap;html=1;" vertex="1" parent="1">
          <mxGeometry x="140" y="485" width="70" height="50" as="geometry" />
        </mxCell>
        <mxCell id="MZkEjCE8ApAS42z6n0Dc-15" value="管理應聘者" style="ellipse;whiteSpace=wrap;html=1;" vertex="1" parent="1">
          <mxGeometry x="160" y="660" width="70" height="50" as="geometry" />
        </mxCell>
        <mxCell id="MZkEjCE8ApAS42z6n0Dc-16" value="" style="endArrow=none;html=1;rounded=0;entryX=0;entryY=0.5;entryDx=0;entryDy=0;" edge="1" parent="1" source="MZkEjCE8ApAS42z6n0Dc-2" target="MZkEjCE8ApAS42z6n0Dc-8">
          <mxGeometry width="50" height="50" relative="1" as="geometry">
            <mxPoint x="80" y="350" as="sourcePoint" />
            <mxPoint x="340" y="380" as="targetPoint" />
          </mxGeometry>
        </mxCell>
        <mxCell id="MZkEjCE8ApAS42z6n0Dc-17" value="" style="endArrow=none;html=1;rounded=0;entryX=0;entryY=0.5;entryDx=0;entryDy=0;" edge="1" parent="1" source="MZkEjCE8ApAS42z6n0Dc-2" target="MZkEjCE8ApAS42z6n0Dc-6">
          <mxGeometry width="50" height="50" relative="1" as="geometry">
            <mxPoint x="80" y="360" as="sourcePoint" />
            <mxPoint x="340" y="380" as="targetPoint" />
          </mxGeometry>
        </mxCell>
        <mxCell id="MZkEjCE8ApAS42z6n0Dc-18" value="" style="endArrow=none;html=1;rounded=0;entryX=0;entryY=0.5;entryDx=0;entryDy=0;" edge="1" parent="1" source="MZkEjCE8ApAS42z6n0Dc-3" target="MZkEjCE8ApAS42z6n0Dc-7">
          <mxGeometry width="50" height="50" relative="1" as="geometry">
            <mxPoint x="290" y="430" as="sourcePoint" />
            <mxPoint x="340" y="380" as="targetPoint" />
          </mxGeometry>
        </mxCell>
        <mxCell id="MZkEjCE8ApAS42z6n0Dc-20" value="" style="endArrow=none;html=1;rounded=0;exitX=1;exitY=0.5;exitDx=0;exitDy=0;" edge="1" parent="1" source="MZkEjCE8ApAS42z6n0Dc-13" target="MZkEjCE8ApAS42z6n0Dc-5">
          <mxGeometry width="50" height="50" relative="1" as="geometry">
            <mxPoint x="290" y="530" as="sourcePoint" />
            <mxPoint x="340" y="480" as="targetPoint" />
          </mxGeometry>
        </mxCell>
        <mxCell id="MZkEjCE8ApAS42z6n0Dc-21" value="&lt;font style=&quot;font-size: 18px;&quot;&gt;招聘平台&lt;/font&gt;" style="text;html=1;strokeColor=none;fillColor=none;align=center;verticalAlign=middle;whiteSpace=wrap;rounded=0;" vertex="1" parent="1">
          <mxGeometry x="307.5" y="230" width="115" height="30" as="geometry" />
        </mxCell>
        <mxCell id="MZkEjCE8ApAS42z6n0Dc-23" value="" style="endArrow=classic;html=1;rounded=0;entryX=1;entryY=0.5;entryDx=0;entryDy=0;exitX=0;exitY=0.5;exitDx=0;exitDy=0;" edge="1" parent="1" source="MZkEjCE8ApAS42z6n0Dc-11" target="MZkEjCE8ApAS42z6n0Dc-8">
          <mxGeometry width="50" height="50" relative="1" as="geometry">
            <mxPoint x="290" y="420" as="sourcePoint" />
            <mxPoint x="340" y="370" as="targetPoint" />
          </mxGeometry>
        </mxCell>
        <mxCell id="MZkEjCE8ApAS42z6n0Dc-24" value="&amp;lt;&amp;lt;include&amp;gt;&amp;gt;" style="html=1;verticalAlign=bottom;labelBackgroundColor=none;endArrow=open;endFill=0;dashed=1;rounded=0;exitX=1;exitY=0.5;exitDx=0;exitDy=0;entryX=-0.026;entryY=0.36;entryDx=0;entryDy=0;entryPerimeter=0;" edge="1" parent="1" source="MZkEjCE8ApAS42z6n0Dc-6" target="MZkEjCE8ApAS42z6n0Dc-10">
          <mxGeometry width="160" relative="1" as="geometry">
            <mxPoint x="240" y="390" as="sourcePoint" />
            <mxPoint x="400" y="390" as="targetPoint" />
          </mxGeometry>
        </mxCell>
        <mxCell id="MZkEjCE8ApAS42z6n0Dc-25" value="&amp;lt;&amp;lt;include&amp;gt;&amp;gt;" style="html=1;verticalAlign=bottom;labelBackgroundColor=none;endArrow=open;endFill=0;dashed=1;rounded=0;entryX=0.5;entryY=1;entryDx=0;entryDy=0;" edge="1" parent="1" source="MZkEjCE8ApAS42z6n0Dc-7" target="MZkEjCE8ApAS42z6n0Dc-10">
          <mxGeometry width="160" relative="1" as="geometry">
            <mxPoint x="230" y="503" as="sourcePoint" />
            <mxPoint x="288" y="480" as="targetPoint" />
          </mxGeometry>
        </mxCell>
        <mxCell id="MZkEjCE8ApAS42z6n0Dc-26" value="身分驗證" style="ellipse;whiteSpace=wrap;html=1;" vertex="1" parent="1">
          <mxGeometry x="325" y="350" width="70" height="50" as="geometry" />
        </mxCell>
        <mxCell id="MZkEjCE8ApAS42z6n0Dc-27" value="&amp;lt;&amp;lt;include&amp;gt;&amp;gt;" style="html=1;verticalAlign=bottom;labelBackgroundColor=none;endArrow=open;endFill=0;dashed=1;rounded=0;exitX=1;exitY=1;exitDx=0;exitDy=0;" edge="1" parent="1" source="MZkEjCE8ApAS42z6n0Dc-26" target="MZkEjCE8ApAS42z6n0Dc-10">
          <mxGeometry width="160" relative="1" as="geometry">
            <mxPoint x="260" y="445" as="sourcePoint" />
            <mxPoint x="318" y="422" as="targetPoint" />
          </mxGeometry>
        </mxCell>
        <mxCell id="MZkEjCE8ApAS42z6n0Dc-28" value="使用者" style="shape=umlActor;verticalLabelPosition=bottom;verticalAlign=top;html=1;outlineConnect=0;" vertex="1" parent="1">
          <mxGeometry x="-70" y="415" width="30" height="60" as="geometry" />
        </mxCell>
        <mxCell id="MZkEjCE8ApAS42z6n0Dc-29" value="" style="endArrow=classic;html=1;rounded=0;" edge="1" parent="1" source="MZkEjCE8ApAS42z6n0Dc-2" target="MZkEjCE8ApAS42z6n0Dc-28">
          <mxGeometry width="50" height="50" relative="1" as="geometry">
            <mxPoint x="40" y="510" as="sourcePoint" />
            <mxPoint x="90" y="460" as="targetPoint" />
          </mxGeometry>
        </mxCell>
        <mxCell id="MZkEjCE8ApAS42z6n0Dc-30" value="" style="endArrow=classic;html=1;rounded=0;" edge="1" parent="1" source="MZkEjCE8ApAS42z6n0Dc-3" target="MZkEjCE8ApAS42z6n0Dc-28">
          <mxGeometry width="50" height="50" relative="1" as="geometry">
            <mxPoint x="20" y="403" as="sourcePoint" />
            <mxPoint x="-40" y="457" as="targetPoint" />
          </mxGeometry>
        </mxCell>
        <mxCell id="MZkEjCE8ApAS42z6n0Dc-33" value="" style="endArrow=none;html=1;rounded=0;entryX=0;entryY=0.5;entryDx=0;entryDy=0;" edge="1" parent="1" source="MZkEjCE8ApAS42z6n0Dc-3" target="MZkEjCE8ApAS42z6n0Dc-15">
          <mxGeometry width="50" height="50" relative="1" as="geometry">
            <mxPoint x="260" y="510" as="sourcePoint" />
            <mxPoint x="310" y="460" as="targetPoint" />
          </mxGeometry>
        </mxCell>
        <mxCell id="MZkEjCE8ApAS42z6n0Dc-34" value="反饋" style="ellipse;whiteSpace=wrap;html=1;" vertex="1" parent="1">
          <mxGeometry x="440" y="550" width="70" height="50" as="geometry" />
        </mxCell>
        <mxCell id="MZkEjCE8ApAS42z6n0Dc-35" value="" style="endArrow=none;html=1;rounded=0;entryX=0;entryY=0;entryDx=0;entryDy=0;" edge="1" parent="1" source="MZkEjCE8ApAS42z6n0Dc-2" target="MZkEjCE8ApAS42z6n0Dc-34">
          <mxGeometry width="50" height="50" relative="1" as="geometry">
            <mxPoint x="260" y="510" as="sourcePoint" />
            <mxPoint x="310" y="460" as="targetPoint" />
          </mxGeometry>
        </mxCell>
        <mxCell id="MZkEjCE8ApAS42z6n0Dc-36" value="" style="endArrow=none;html=1;rounded=0;entryX=0;entryY=0.5;entryDx=0;entryDy=0;" edge="1" parent="1" source="MZkEjCE8ApAS42z6n0Dc-3" target="MZkEjCE8ApAS42z6n0Dc-34">
          <mxGeometry width="50" height="50" relative="1" as="geometry">
            <mxPoint x="260" y="510" as="sourcePoint" />
            <mxPoint x="310" y="460" as="targetPoint" />
          </mxGeometry>
        </mxCell>
        <mxCell id="MZkEjCE8ApAS42z6n0Dc-37" value="統計" style="ellipse;whiteSpace=wrap;html=1;" vertex="1" parent="1">
          <mxGeometry x="500" y="640" width="70" height="50" as="geometry" />
        </mxCell>
        <mxCell id="MZkEjCE8ApAS42z6n0Dc-38" value="" style="endArrow=none;html=1;rounded=0;entryX=1;entryY=0.5;entryDx=0;entryDy=0;" edge="1" parent="1" source="MZkEjCE8ApAS42z6n0Dc-5" target="MZkEjCE8ApAS42z6n0Dc-37">
          <mxGeometry width="50" height="50" relative="1" as="geometry">
            <mxPoint x="260" y="510" as="sourcePoint" />
            <mxPoint x="310" y="460" as="targetPoint" />
          </mxGeometry>
        </mxCell>
        <mxCell id="MZkEjCE8ApAS42z6n0Dc-39" value="&amp;lt;&amp;lt;include&amp;gt;&amp;gt;" style="html=1;verticalAlign=bottom;labelBackgroundColor=none;endArrow=open;endFill=0;dashed=1;rounded=0;entryX=0.5;entryY=1;entryDx=0;entryDy=0;exitX=0;exitY=0.5;exitDx=0;exitDy=0;" edge="1" parent="1" source="MZkEjCE8ApAS42z6n0Dc-37" target="MZkEjCE8ApAS42z6n0Dc-34">
          <mxGeometry width="160" relative="1" as="geometry">
            <mxPoint x="322" y="504" as="sourcePoint" />
            <mxPoint x="365" y="460" as="targetPoint" />
          </mxGeometry>
        </mxCell>
        <mxCell id="MZkEjCE8ApAS42z6n0Dc-40" value="&amp;lt;&amp;lt;include&amp;gt;&amp;gt;" style="html=1;verticalAlign=bottom;labelBackgroundColor=none;endArrow=open;endFill=0;dashed=1;rounded=0;entryX=0.5;entryY=1;entryDx=0;entryDy=0;exitX=0;exitY=0;exitDx=0;exitDy=0;" edge="1" parent="1" source="MZkEjCE8ApAS42z6n0Dc-7" target="MZkEjCE8ApAS42z6n0Dc-14">
          <mxGeometry width="160" relative="1" as="geometry">
            <mxPoint x="440" y="615" as="sourcePoint" />
            <mxPoint x="395" y="550" as="targetPoint" />
          </mxGeometry>
        </mxCell>
        <mxCell id="MZkEjCE8ApAS42z6n0Dc-41" value="&amp;lt;&amp;lt;include&amp;gt;&amp;gt;" style="html=1;verticalAlign=bottom;labelBackgroundColor=none;endArrow=open;endFill=0;dashed=1;rounded=0;entryX=0.5;entryY=0;entryDx=0;entryDy=0;exitX=0.5;exitY=1;exitDx=0;exitDy=0;" edge="1" parent="1" source="MZkEjCE8ApAS42z6n0Dc-6" target="MZkEjCE8ApAS42z6n0Dc-14">
          <mxGeometry width="160" relative="1" as="geometry">
            <mxPoint x="450" y="625" as="sourcePoint" />
            <mxPoint x="405" y="560" as="targetPoint" />
          </mxGeometry>
        </mxCell>
        <mxCell id="MZkEjCE8ApAS42z6n0Dc-42" value="培訓資源" style="ellipse;whiteSpace=wrap;html=1;" vertex="1" parent="1">
          <mxGeometry x="430" y="290" width="70" height="50" as="geometry" />
        </mxCell>
        <mxCell id="MZkEjCE8ApAS42z6n0Dc-44" value="" style="endArrow=none;html=1;rounded=0;entryX=0;entryY=0.5;entryDx=0;entryDy=0;" edge="1" parent="1" source="MZkEjCE8ApAS42z6n0Dc-2" target="MZkEjCE8ApAS42z6n0Dc-42">
          <mxGeometry width="50" height="50" relative="1" as="geometry">
            <mxPoint x="260" y="420" as="sourcePoint" />
            <mxPoint x="310" y="370" as="targetPoint" />
          </mxGeometry>
        </mxCell>
        <mxCell id="MZkEjCE8ApAS42z6n0Dc-45" value="&amp;lt;&amp;lt;include&amp;gt;&amp;gt;" style="html=1;verticalAlign=bottom;labelBackgroundColor=none;endArrow=open;endFill=0;dashed=1;rounded=0;exitX=0;exitY=0;exitDx=0;exitDy=0;entryX=1;entryY=1;entryDx=0;entryDy=0;" edge="1" parent="1" source="MZkEjCE8ApAS42z6n0Dc-13" target="MZkEjCE8ApAS42z6n0Dc-42">
          <mxGeometry width="160" relative="1" as="geometry">
            <mxPoint x="510" y="323" as="sourcePoint" />
            <mxPoint x="440" y="470" as="targetPoint" />
          </mxGeometry>
        </mxCell>
        <mxCell id="MZkEjCE8ApAS42z6n0Dc-47" value="篩選應聘者" style="ellipse;whiteSpace=wrap;html=1;" vertex="1" parent="1">
          <mxGeometry x="370" y="690" width="70" height="50" as="geometry" />
        </mxCell>
        <mxCell id="MZkEjCE8ApAS42z6n0Dc-48" value="&amp;lt;&amp;lt;include&amp;gt;&amp;gt;" style="html=1;verticalAlign=bottom;labelBackgroundColor=none;endArrow=open;endFill=0;dashed=1;rounded=0;exitX=0;exitY=0.5;exitDx=0;exitDy=0;" edge="1" parent="1" source="MZkEjCE8ApAS42z6n0Dc-47" target="MZkEjCE8ApAS42z6n0Dc-15">
          <mxGeometry width="160" relative="1" as="geometry">
            <mxPoint x="490" y="695" as="sourcePoint" />
            <mxPoint x="459" y="610" as="targetPoint" />
          </mxGeometry>
        </mxCell>
        <mxCell id="MZkEjCE8ApAS42z6n0Dc-49" value="&amp;lt;&amp;lt;include&amp;gt;&amp;gt;" style="html=1;verticalAlign=bottom;labelBackgroundColor=none;endArrow=open;endFill=0;dashed=1;rounded=0;exitX=0.997;exitY=0.72;exitDx=0;exitDy=0;exitPerimeter=0;entryX=0.5;entryY=0;entryDx=0;entryDy=0;" edge="1" parent="1" source="MZkEjCE8ApAS42z6n0Dc-7" target="MZkEjCE8ApAS42z6n0Dc-47">
          <mxGeometry width="160" relative="1" as="geometry">
            <mxPoint x="380" y="725" as="sourcePoint" />
            <mxPoint x="239" y="701" as="targetPoint" />
          </mxGeometry>
        </mxCell>
      </root>
    </mxGraphModel>
  </diagram>
  <diagram id="H0ffbHRdK0yrMVQfbRMV" name="第 4 页">
    <mxGraphModel dx="2230" dy="653" grid="1" gridSize="10" guides="1" tooltips="1" connect="1" arrows="1" fold="1" page="1" pageScale="1" pageWidth="827" pageHeight="1169" math="0" shadow="0">
      <root>
        <mxCell id="0" />
        <mxCell id="1" parent="0" />
        <mxCell id="aWqV9zy5l340k6JrbE5z-1" value="" style="ellipse;whiteSpace=wrap;html=1;aspect=fixed;fillColor=#FF8C80;strokeColor=#FF8C80;" vertex="1" parent="1">
          <mxGeometry x="30" y="50" width="20" height="20" as="geometry" />
        </mxCell>
        <mxCell id="aWqV9zy5l340k6JrbE5z-2" value="&lt;font style=&quot;font-size: 15px;&quot; color=&quot;#666666&quot;&gt;&lt;b&gt;登入&lt;/b&gt;&lt;/font&gt;" style="rounded=1;whiteSpace=wrap;html=1;arcSize=50;fillColor=#FFCCB3;strokeColor=#FFCCB3;" vertex="1" parent="1">
          <mxGeometry x="2.5" y="105" width="75" height="35" as="geometry" />
        </mxCell>
        <mxCell id="aWqV9zy5l340k6JrbE5z-4" value="&lt;b&gt;&lt;font style=&quot;font-size: 14px;&quot; color=&quot;#666666&quot;&gt;身分驗證&lt;/font&gt;&lt;/b&gt;" style="rounded=1;whiteSpace=wrap;html=1;arcSize=50;fillColor=#FFCCB3;strokeColor=#FFCCB3;" vertex="1" parent="1">
          <mxGeometry x="185" y="105" width="80" height="35" as="geometry" />
        </mxCell>
        <mxCell id="aWqV9zy5l340k6JrbE5z-6" value="&lt;font size=&quot;1&quot; color=&quot;#666666&quot;&gt;&lt;b style=&quot;font-size: 13px;&quot;&gt;是否註冊&lt;/b&gt;&lt;/font&gt;" style="rhombus;whiteSpace=wrap;html=1;fillColor=#FFCCB3;strokeColor=#FFCCB3;" vertex="1" parent="1">
          <mxGeometry x="-5" y="170" width="90" height="60" as="geometry" />
        </mxCell>
        <mxCell id="aWqV9zy5l340k6JrbE5z-7" value="" style="endArrow=open;html=1;rounded=0;exitX=1;exitY=0.5;exitDx=0;exitDy=0;entryX=0;entryY=0.5;entryDx=0;entryDy=0;strokeColor=#999999;strokeWidth=2;endFill=0;" edge="1" parent="1" source="aWqV9zy5l340k6JrbE5z-6" target="aWqV9zy5l340k6JrbE5z-12">
          <mxGeometry width="50" height="50" relative="1" as="geometry">
            <mxPoint x="90" y="290" as="sourcePoint" />
            <mxPoint x="175" y="210" as="targetPoint" />
          </mxGeometry>
        </mxCell>
        <mxCell id="aWqV9zy5l340k6JrbE5z-8" value="" style="endArrow=open;html=1;rounded=0;exitX=0.5;exitY=0;exitDx=0;exitDy=0;entryX=0.5;entryY=1;entryDx=0;entryDy=0;strokeColor=#999999;strokeWidth=2;endFill=0;" edge="1" parent="1" source="aWqV9zy5l340k6JrbE5z-12" target="aWqV9zy5l340k6JrbE5z-4">
          <mxGeometry width="50" height="50" relative="1" as="geometry">
            <mxPoint x="215" y="190" as="sourcePoint" />
            <mxPoint x="140" y="240" as="targetPoint" />
          </mxGeometry>
        </mxCell>
        <mxCell id="aWqV9zy5l340k6JrbE5z-9" value="" style="endArrow=open;html=1;rounded=0;exitX=0;exitY=0.5;exitDx=0;exitDy=0;entryX=1;entryY=0.5;entryDx=0;entryDy=0;strokeColor=#999999;strokeWidth=2;endFill=0;" edge="1" parent="1" source="aWqV9zy5l340k6JrbE5z-4" target="aWqV9zy5l340k6JrbE5z-2">
          <mxGeometry width="50" height="50" relative="1" as="geometry">
            <mxPoint x="90" y="290" as="sourcePoint" />
            <mxPoint x="140" y="240" as="targetPoint" />
          </mxGeometry>
        </mxCell>
        <mxCell id="aWqV9zy5l340k6JrbE5z-10" value="" style="endArrow=open;html=1;rounded=0;exitX=0.5;exitY=1;exitDx=0;exitDy=0;entryX=0.5;entryY=0;entryDx=0;entryDy=0;strokeColor=#999999;strokeWidth=2;endFill=0;" edge="1" parent="1" source="aWqV9zy5l340k6JrbE5z-2" target="aWqV9zy5l340k6JrbE5z-6">
          <mxGeometry width="50" height="50" relative="1" as="geometry">
            <mxPoint x="90" y="290" as="sourcePoint" />
            <mxPoint x="140" y="240" as="targetPoint" />
          </mxGeometry>
        </mxCell>
        <mxCell id="aWqV9zy5l340k6JrbE5z-11" value="" style="endArrow=open;html=1;rounded=0;exitX=0.5;exitY=1;exitDx=0;exitDy=0;strokeColor=#999999;strokeWidth=2;endFill=0;" edge="1" parent="1" source="aWqV9zy5l340k6JrbE5z-1" target="aWqV9zy5l340k6JrbE5z-2">
          <mxGeometry width="50" height="50" relative="1" as="geometry">
            <mxPoint x="90" y="290" as="sourcePoint" />
            <mxPoint x="140" y="240" as="targetPoint" />
          </mxGeometry>
        </mxCell>
        <mxCell id="aWqV9zy5l340k6JrbE5z-12" value="&lt;font style=&quot;font-size: 15px;&quot; color=&quot;#666666&quot;&gt;&lt;b&gt;註冊&lt;/b&gt;&lt;/font&gt;" style="rounded=1;whiteSpace=wrap;html=1;arcSize=50;fillColor=#FFCCB3;strokeColor=#FFCCB3;" vertex="1" parent="1">
          <mxGeometry x="187.5" y="182.5" width="75" height="35" as="geometry" />
        </mxCell>
        <mxCell id="aWqV9zy5l340k6JrbE5z-14" value="&lt;font style=&quot;font-size: 15px;&quot; color=&quot;#666666&quot;&gt;&lt;b&gt;招聘方&lt;br&gt;介面&lt;/b&gt;&lt;/font&gt;" style="rounded=1;whiteSpace=wrap;html=1;arcSize=50;fillColor=#FFCCB3;strokeColor=#FFCCB3;" vertex="1" parent="1">
          <mxGeometry x="185" y="276.25" width="75" height="47.5" as="geometry" />
        </mxCell>
        <mxCell id="aWqV9zy5l340k6JrbE5z-15" value="&lt;font style=&quot;font-size: 15px;&quot; color=&quot;#666666&quot;&gt;&lt;b&gt;求職者&lt;br&gt;介面&lt;/b&gt;&lt;/font&gt;" style="rounded=1;whiteSpace=wrap;html=1;arcSize=50;fillColor=#FFCCB3;strokeColor=#FFCCB3;" vertex="1" parent="1">
          <mxGeometry x="-170" y="276.25" width="75" height="47.5" as="geometry" />
        </mxCell>
        <mxCell id="aWqV9zy5l340k6JrbE5z-17" value="" style="endArrow=open;html=1;rounded=0;exitX=0.5;exitY=1;exitDx=0;exitDy=0;entryX=0.5;entryY=0;entryDx=0;entryDy=0;strokeColor=#999999;strokeWidth=2;endFill=0;" edge="1" parent="1" source="aWqV9zy5l340k6JrbE5z-6">
          <mxGeometry width="50" height="50" relative="1" as="geometry">
            <mxPoint x="50" y="150" as="sourcePoint" />
            <mxPoint x="40" y="270" as="targetPoint" />
          </mxGeometry>
        </mxCell>
        <mxCell id="aWqV9zy5l340k6JrbE5z-18" value="&lt;b&gt;&lt;font style=&quot;font-size: 15px;&quot; color=&quot;#666666&quot;&gt;是&lt;/font&gt;&lt;/b&gt;" style="text;html=1;strokeColor=none;fillColor=none;align=center;verticalAlign=middle;whiteSpace=wrap;rounded=0;" vertex="1" parent="1">
          <mxGeometry x="-5" y="230" width="60" height="30" as="geometry" />
        </mxCell>
        <mxCell id="aWqV9zy5l340k6JrbE5z-19" value="&lt;b&gt;&lt;font style=&quot;font-size: 15px;&quot; color=&quot;#666666&quot;&gt;否&lt;/font&gt;&lt;/b&gt;" style="text;html=1;strokeColor=none;fillColor=none;align=center;verticalAlign=middle;whiteSpace=wrap;rounded=0;" vertex="1" parent="1">
          <mxGeometry x="105" y="170" width="60" height="30" as="geometry" />
        </mxCell>
        <mxCell id="aWqV9zy5l340k6JrbE5z-22" value="" style="endArrow=open;html=1;rounded=0;exitX=0;exitY=0.5;exitDx=0;exitDy=0;entryX=1;entryY=0.5;entryDx=0;entryDy=0;strokeColor=#999999;strokeWidth=2;endFill=0;" edge="1" parent="1" source="aWqV9zy5l340k6JrbE5z-26" target="aWqV9zy5l340k6JrbE5z-15">
          <mxGeometry width="50" height="50" relative="1" as="geometry">
            <mxPoint x="-20" y="320" as="sourcePoint" />
            <mxPoint x="72.5" y="260" as="targetPoint" />
          </mxGeometry>
        </mxCell>
        <mxCell id="aWqV9zy5l340k6JrbE5z-25" value="" style="endArrow=open;html=1;rounded=0;entryX=0;entryY=0.5;entryDx=0;entryDy=0;strokeColor=#999999;strokeWidth=2;endFill=0;exitX=1;exitY=0.5;exitDx=0;exitDy=0;" edge="1" parent="1" source="aWqV9zy5l340k6JrbE5z-26" target="aWqV9zy5l340k6JrbE5z-14">
          <mxGeometry width="50" height="50" relative="1" as="geometry">
            <mxPoint x="90" y="370" as="sourcePoint" />
            <mxPoint x="100" y="220" as="targetPoint" />
          </mxGeometry>
        </mxCell>
        <mxCell id="aWqV9zy5l340k6JrbE5z-26" value="&lt;font size=&quot;1&quot; color=&quot;#666666&quot;&gt;&lt;b style=&quot;font-size: 13px;&quot;&gt;登入者身分&lt;/b&gt;&lt;/font&gt;" style="rhombus;whiteSpace=wrap;html=1;fillColor=#FFCCB3;strokeColor=#FFCCB3;" vertex="1" parent="1">
          <mxGeometry x="-5" y="270" width="90" height="60" as="geometry" />
        </mxCell>
        <mxCell id="aWqV9zy5l340k6JrbE5z-27" value="&lt;b&gt;&lt;font style=&quot;font-size: 15px;&quot; color=&quot;#666666&quot;&gt;求職者&lt;/font&gt;&lt;/b&gt;" style="text;html=1;strokeColor=none;fillColor=none;align=center;verticalAlign=middle;whiteSpace=wrap;rounded=0;" vertex="1" parent="1">
          <mxGeometry x="-80" y="270" width="60" height="30" as="geometry" />
        </mxCell>
        <mxCell id="aWqV9zy5l340k6JrbE5z-28" value="&lt;b&gt;&lt;font style=&quot;font-size: 15px;&quot; color=&quot;#666666&quot;&gt;招聘方&lt;/font&gt;&lt;/b&gt;" style="text;html=1;strokeColor=none;fillColor=none;align=center;verticalAlign=middle;whiteSpace=wrap;rounded=0;" vertex="1" parent="1">
          <mxGeometry x="105" y="270" width="60" height="30" as="geometry" />
        </mxCell>
        <mxCell id="aWqV9zy5l340k6JrbE5z-29" value="" style="rounded=0;whiteSpace=wrap;html=1;fillColor=#FFCCB3;strokeColor=#FFCCB3;" vertex="1" parent="1">
          <mxGeometry x="-244.85" y="360" width="224.69" height="10" as="geometry" />
        </mxCell>
        <mxCell id="aWqV9zy5l340k6JrbE5z-30" value="" style="endArrow=open;html=1;rounded=0;exitX=0.5;exitY=1;exitDx=0;exitDy=0;entryX=0.5;entryY=0;entryDx=0;entryDy=0;strokeColor=#999999;strokeWidth=2;endFill=0;" edge="1" parent="1" source="aWqV9zy5l340k6JrbE5z-15" target="aWqV9zy5l340k6JrbE5z-29">
          <mxGeometry width="50" height="50" relative="1" as="geometry">
            <mxPoint x="5" y="310" as="sourcePoint" />
            <mxPoint x="-85" y="310" as="targetPoint" />
          </mxGeometry>
        </mxCell>
        <mxCell id="aWqV9zy5l340k6JrbE5z-31" value="&lt;font style=&quot;font-size: 15px;&quot; color=&quot;#666666&quot;&gt;&lt;b&gt;編輯&lt;br&gt;個人資料&lt;/b&gt;&lt;/font&gt;" style="rounded=1;whiteSpace=wrap;html=1;arcSize=50;fillColor=#FFCCB3;strokeColor=#FFCCB3;" vertex="1" parent="1">
          <mxGeometry x="-250" y="420" width="75" height="40" as="geometry" />
        </mxCell>
        <mxCell id="aWqV9zy5l340k6JrbE5z-32" value="&lt;font color=&quot;#666666&quot;&gt;&lt;span style=&quot;font-size: 15px;&quot;&gt;&lt;b&gt;求職&lt;/b&gt;&lt;/span&gt;&lt;/font&gt;" style="rounded=1;whiteSpace=wrap;html=1;arcSize=50;fillColor=#FFCCB3;strokeColor=#FFCCB3;" vertex="1" parent="1">
          <mxGeometry x="-86.25" y="420" width="75" height="35" as="geometry" />
        </mxCell>
        <mxCell id="aWqV9zy5l340k6JrbE5z-36" value="&lt;font color=&quot;#666666&quot;&gt;&lt;span style=&quot;font-size: 15px;&quot;&gt;&lt;b&gt;搜尋職位&lt;/b&gt;&lt;/span&gt;&lt;/font&gt;" style="rounded=1;whiteSpace=wrap;html=1;arcSize=50;fillColor=#FFCCB3;strokeColor=#FFCCB3;" vertex="1" parent="1">
          <mxGeometry x="-16.25" y="540" width="75" height="35" as="geometry" />
        </mxCell>
        <mxCell id="aWqV9zy5l340k6JrbE5z-37" value="&lt;font color=&quot;#666666&quot;&gt;&lt;span style=&quot;font-size: 15px;&quot;&gt;&lt;b&gt;培訓功能&lt;/b&gt;&lt;/span&gt;&lt;/font&gt;" style="rounded=1;whiteSpace=wrap;html=1;arcSize=50;fillColor=#FFCCB3;strokeColor=#FFCCB3;" vertex="1" parent="1">
          <mxGeometry x="-155" y="540" width="75" height="35" as="geometry" />
        </mxCell>
        <mxCell id="aWqV9zy5l340k6JrbE5z-38" value="" style="rounded=0;whiteSpace=wrap;html=1;fillColor=#FFCCB3;strokeColor=#FFCCB3;" vertex="1" parent="1">
          <mxGeometry x="-149.53" y="490" width="201.56" height="10" as="geometry" />
        </mxCell>
        <mxCell id="aWqV9zy5l340k6JrbE5z-39" value="" style="endArrow=open;html=1;rounded=0;exitX=0.5;exitY=1;exitDx=0;exitDy=0;entryX=0.5;entryY=0;entryDx=0;entryDy=0;strokeColor=#999999;strokeWidth=2;endFill=0;" edge="1" parent="1" source="aWqV9zy5l340k6JrbE5z-32" target="aWqV9zy5l340k6JrbE5z-38">
          <mxGeometry width="50" height="50" relative="1" as="geometry">
            <mxPoint x="-49.25" y="455" as="sourcePoint" />
            <mxPoint x="-49.25" y="487" as="targetPoint" />
          </mxGeometry>
        </mxCell>
        <mxCell id="aWqV9zy5l340k6JrbE5z-42" value="&lt;font color=&quot;#666666&quot;&gt;&lt;span style=&quot;font-size: 15px;&quot;&gt;&lt;b&gt;顯示&lt;br&gt;求職列表&lt;/b&gt;&lt;/span&gt;&lt;/font&gt;" style="rounded=1;whiteSpace=wrap;html=1;arcSize=50;fillColor=#FFCCB3;strokeColor=#FFCCB3;" vertex="1" parent="1">
          <mxGeometry x="-16.25" y="600" width="75" height="50" as="geometry" />
        </mxCell>
        <mxCell id="aWqV9zy5l340k6JrbE5z-43" value="" style="endArrow=open;html=1;rounded=0;exitX=0.5;exitY=1;exitDx=0;exitDy=0;entryX=0.5;entryY=0;entryDx=0;entryDy=0;strokeColor=#999999;strokeWidth=2;endFill=0;" edge="1" parent="1" source="aWqV9zy5l340k6JrbE5z-36" target="aWqV9zy5l340k6JrbE5z-42">
          <mxGeometry width="50" height="50" relative="1" as="geometry">
            <mxPoint x="11.75" y="500" as="sourcePoint" />
            <mxPoint x="31.75" y="550" as="targetPoint" />
          </mxGeometry>
        </mxCell>
        <mxCell id="aWqV9zy5l340k6JrbE5z-44" value="&lt;font color=&quot;#666666&quot;&gt;&lt;span style=&quot;font-size: 15px;&quot;&gt;&lt;b&gt;送出&lt;/b&gt;&lt;/span&gt;&lt;/font&gt;" style="rounded=1;whiteSpace=wrap;html=1;arcSize=50;fillColor=#FFCCB3;strokeColor=#FFCCB3;" vertex="1" parent="1">
          <mxGeometry x="-250" y="500" width="75" height="35" as="geometry" />
        </mxCell>
        <mxCell id="aWqV9zy5l340k6JrbE5z-45" value="&lt;font color=&quot;#666666&quot;&gt;&lt;span style=&quot;font-size: 15px;&quot;&gt;&lt;b&gt;更新&lt;br&gt;資料庫&lt;/b&gt;&lt;/span&gt;&lt;/font&gt;" style="rounded=1;whiteSpace=wrap;html=1;arcSize=50;fillColor=#FFCCB3;strokeColor=#FFCCB3;" vertex="1" parent="1">
          <mxGeometry x="-250" y="570" width="75" height="45.5" as="geometry" />
        </mxCell>
        <mxCell id="aWqV9zy5l340k6JrbE5z-46" value="" style="endArrow=open;html=1;rounded=0;exitX=0.5;exitY=1;exitDx=0;exitDy=0;entryX=0.5;entryY=0;entryDx=0;entryDy=0;strokeColor=#999999;strokeWidth=2;endFill=0;" edge="1" parent="1" source="aWqV9zy5l340k6JrbE5z-31" target="aWqV9zy5l340k6JrbE5z-44">
          <mxGeometry width="50" height="50" relative="1" as="geometry">
            <mxPoint x="-162" y="380" as="sourcePoint" />
            <mxPoint x="-202" y="430" as="targetPoint" />
          </mxGeometry>
        </mxCell>
        <mxCell id="aWqV9zy5l340k6JrbE5z-47" value="" style="endArrow=open;html=1;rounded=0;exitX=0.5;exitY=1;exitDx=0;exitDy=0;entryX=0.5;entryY=0;entryDx=0;entryDy=0;strokeColor=#999999;strokeWidth=2;endFill=0;" edge="1" parent="1" source="aWqV9zy5l340k6JrbE5z-44" target="aWqV9zy5l340k6JrbE5z-45">
          <mxGeometry width="50" height="50" relative="1" as="geometry">
            <mxPoint x="-152" y="390" as="sourcePoint" />
            <mxPoint x="-192" y="440" as="targetPoint" />
          </mxGeometry>
        </mxCell>
        <mxCell id="aWqV9zy5l340k6JrbE5z-49" value="&lt;font style=&quot;font-size: 15px;&quot; color=&quot;#666666&quot;&gt;&lt;b&gt;發布職位&lt;/b&gt;&lt;/font&gt;" style="rounded=1;whiteSpace=wrap;html=1;arcSize=50;fillColor=#FFCCB3;strokeColor=#FFCCB3;" vertex="1" parent="1">
          <mxGeometry x="185" y="360" width="75" height="35" as="geometry" />
        </mxCell>
        <mxCell id="aWqV9zy5l340k6JrbE5z-50" value="&lt;font color=&quot;#666666&quot;&gt;&lt;span style=&quot;font-size: 15px;&quot;&gt;&lt;b&gt;查看&lt;br&gt;職位資訊&lt;/b&gt;&lt;/span&gt;&lt;/font&gt;" style="rounded=1;whiteSpace=wrap;html=1;arcSize=50;fillColor=#FFCCB3;strokeColor=#FFCCB3;" vertex="1" parent="1">
          <mxGeometry x="-16.25" y="680" width="75" height="50" as="geometry" />
        </mxCell>
        <mxCell id="aWqV9zy5l340k6JrbE5z-51" value="" style="endArrow=open;html=1;rounded=0;exitX=0.5;exitY=1;exitDx=0;exitDy=0;entryX=0.5;entryY=0;entryDx=0;entryDy=0;strokeColor=#999999;strokeWidth=2;endFill=0;" edge="1" parent="1" source="aWqV9zy5l340k6JrbE5z-42" target="aWqV9zy5l340k6JrbE5z-50">
          <mxGeometry width="50" height="50" relative="1" as="geometry">
            <mxPoint x="31.75" y="585" as="sourcePoint" />
            <mxPoint x="31.75" y="620" as="targetPoint" />
          </mxGeometry>
        </mxCell>
        <mxCell id="aWqV9zy5l340k6JrbE5z-52" value="&lt;font color=&quot;#666666&quot;&gt;&lt;span style=&quot;font-size: 15px;&quot;&gt;&lt;b&gt;瀏覽&lt;/b&gt;&lt;/span&gt;&lt;/font&gt;" style="rounded=1;whiteSpace=wrap;html=1;arcSize=50;fillColor=#FFCCB3;strokeColor=#FFCCB3;" vertex="1" parent="1">
          <mxGeometry x="-155" y="607.5" width="75" height="35" as="geometry" />
        </mxCell>
        <mxCell id="aWqV9zy5l340k6JrbE5z-53" value="&lt;font color=&quot;#666666&quot;&gt;&lt;span style=&quot;font-size: 15px;&quot;&gt;&lt;b&gt;報名課程&lt;/b&gt;&lt;/span&gt;&lt;/font&gt;" style="rounded=1;whiteSpace=wrap;html=1;arcSize=50;fillColor=#FFCCB3;strokeColor=#FFCCB3;" vertex="1" parent="1">
          <mxGeometry x="-155" y="680" width="75" height="35" as="geometry" />
        </mxCell>
        <mxCell id="aWqV9zy5l340k6JrbE5z-54" value="" style="endArrow=open;html=1;rounded=0;exitX=0.5;exitY=1;exitDx=0;exitDy=0;entryX=0.5;entryY=0;entryDx=0;entryDy=0;strokeColor=#999999;strokeWidth=2;endFill=0;" edge="1" parent="1" source="aWqV9zy5l340k6JrbE5z-37" target="aWqV9zy5l340k6JrbE5z-52">
          <mxGeometry width="50" height="50" relative="1" as="geometry">
            <mxPoint x="-4.5" y="585" as="sourcePoint" />
            <mxPoint x="-4.5" y="610" as="targetPoint" />
          </mxGeometry>
        </mxCell>
        <mxCell id="aWqV9zy5l340k6JrbE5z-55" value="" style="endArrow=open;html=1;rounded=0;exitX=0.5;exitY=1;exitDx=0;exitDy=0;entryX=0.5;entryY=0;entryDx=0;entryDy=0;strokeColor=#999999;strokeWidth=2;endFill=0;" edge="1" parent="1" source="aWqV9zy5l340k6JrbE5z-52" target="aWqV9zy5l340k6JrbE5z-53">
          <mxGeometry width="50" height="50" relative="1" as="geometry">
            <mxPoint x="5.5" y="595" as="sourcePoint" />
            <mxPoint x="5.5" y="620" as="targetPoint" />
          </mxGeometry>
        </mxCell>
        <mxCell id="aWqV9zy5l340k6JrbE5z-56" value="" style="rounded=0;whiteSpace=wrap;html=1;fillColor=#FFCCB3;strokeColor=#FFCCB3;" vertex="1" parent="1">
          <mxGeometry x="125.94" y="512.5" width="193.12" height="10" as="geometry" />
        </mxCell>
        <mxCell id="aWqV9zy5l340k6JrbE5z-57" value="&lt;font style=&quot;font-size: 15px;&quot; color=&quot;#666666&quot;&gt;&lt;b&gt;編輯&lt;br&gt;職位資訊&lt;br&gt;&lt;/b&gt;&lt;/font&gt;" style="rounded=1;whiteSpace=wrap;html=1;arcSize=50;fillColor=#FFCCB3;strokeColor=#FFCCB3;" vertex="1" parent="1">
          <mxGeometry x="250" y="565" width="75" height="40" as="geometry" />
        </mxCell>
        <mxCell id="aWqV9zy5l340k6JrbE5z-58" value="&lt;font style=&quot;font-size: 15px;&quot; color=&quot;#666666&quot;&gt;&lt;b&gt;查看應聘者簡歷&lt;br&gt;&lt;/b&gt;&lt;/font&gt;" style="rounded=1;whiteSpace=wrap;html=1;arcSize=50;fillColor=#FFCCB3;strokeColor=#FFCCB3;" vertex="1" parent="1">
          <mxGeometry x="120" y="565" width="75" height="40" as="geometry" />
        </mxCell>
        <mxCell id="aWqV9zy5l340k6JrbE5z-59" value="" style="endArrow=open;html=1;rounded=0;exitX=0.5;exitY=1;exitDx=0;exitDy=0;entryX=0.5;entryY=0;entryDx=0;entryDy=0;strokeColor=#999999;strokeWidth=2;endFill=0;" edge="1" parent="1" source="aWqV9zy5l340k6JrbE5z-14" target="aWqV9zy5l340k6JrbE5z-49">
          <mxGeometry width="50" height="50" relative="1" as="geometry">
            <mxPoint x="-47" y="465" as="sourcePoint" />
            <mxPoint x="-47" y="500" as="targetPoint" />
          </mxGeometry>
        </mxCell>
        <mxCell id="aWqV9zy5l340k6JrbE5z-60" value="" style="endArrow=open;html=1;rounded=0;exitX=0.5;exitY=1;exitDx=0;exitDy=0;entryX=0.5;entryY=0;entryDx=0;entryDy=0;strokeColor=#999999;strokeWidth=2;endFill=0;" edge="1" parent="1" source="aWqV9zy5l340k6JrbE5z-49" target="aWqV9zy5l340k6JrbE5z-64">
          <mxGeometry width="50" height="50" relative="1" as="geometry">
            <mxPoint x="233" y="334" as="sourcePoint" />
            <mxPoint x="233" y="370" as="targetPoint" />
          </mxGeometry>
        </mxCell>
        <mxCell id="aWqV9zy5l340k6JrbE5z-64" value="&lt;font style=&quot;font-size: 15px;&quot; color=&quot;#666666&quot;&gt;&lt;b&gt;上傳至求職列表&lt;br&gt;&lt;/b&gt;&lt;/font&gt;" style="rounded=1;whiteSpace=wrap;html=1;arcSize=50;fillColor=#FFCCB3;strokeColor=#FFCCB3;" vertex="1" parent="1">
          <mxGeometry x="185" y="430" width="75" height="40" as="geometry" />
        </mxCell>
        <mxCell id="aWqV9zy5l340k6JrbE5z-65" value="" style="endArrow=open;html=1;rounded=0;exitX=0.5;exitY=1;exitDx=0;exitDy=0;entryX=0.5;entryY=0;entryDx=0;entryDy=0;strokeColor=#999999;strokeWidth=2;endFill=0;" edge="1" parent="1" source="aWqV9zy5l340k6JrbE5z-64" target="aWqV9zy5l340k6JrbE5z-56">
          <mxGeometry width="50" height="50" relative="1" as="geometry">
            <mxPoint x="233" y="405" as="sourcePoint" />
            <mxPoint x="233" y="440" as="targetPoint" />
          </mxGeometry>
        </mxCell>
        <mxCell id="aWqV9zy5l340k6JrbE5z-66" value="&lt;font style=&quot;font-size: 15px;&quot; color=&quot;#666666&quot;&gt;&lt;b&gt;篩選簡歷&lt;/b&gt;&lt;/font&gt;" style="rounded=1;whiteSpace=wrap;html=1;arcSize=50;fillColor=#FFCCB3;strokeColor=#FFCCB3;" vertex="1" parent="1">
          <mxGeometry x="120" y="670" width="75" height="35" as="geometry" />
        </mxCell>
        <mxCell id="aWqV9zy5l340k6JrbE5z-71" value="" style="endArrow=open;html=1;rounded=0;exitX=0.5;exitY=1;exitDx=0;exitDy=0;strokeColor=#999999;strokeWidth=2;endFill=0;entryX=0.5;entryY=0;entryDx=0;entryDy=0;" edge="1" parent="1" source="aWqV9zy5l340k6JrbE5z-66" target="aWqV9zy5l340k6JrbE5z-75">
          <mxGeometry width="50" height="50" relative="1" as="geometry">
            <mxPoint x="-9" y="660" as="sourcePoint" />
            <mxPoint x="158" y="770" as="targetPoint" />
          </mxGeometry>
        </mxCell>
        <mxCell id="aWqV9zy5l340k6JrbE5z-72" value="" style="endArrow=open;html=1;rounded=0;exitX=0.5;exitY=1;exitDx=0;exitDy=0;strokeColor=#999999;strokeWidth=2;endFill=0;entryX=0.142;entryY=0.04;entryDx=0;entryDy=0;entryPerimeter=0;" edge="1" parent="1" source="aWqV9zy5l340k6JrbE5z-50">
          <mxGeometry width="50" height="50" relative="1" as="geometry">
            <mxPoint x="198" y="733" as="sourcePoint" />
            <mxPoint x="21.55749999999989" y="760.3999999999999" as="targetPoint" />
          </mxGeometry>
        </mxCell>
        <mxCell id="aWqV9zy5l340k6JrbE5z-73" value="" style="endArrow=open;html=1;rounded=0;exitX=0.5;exitY=1;exitDx=0;exitDy=0;strokeColor=#999999;strokeWidth=2;endFill=0;entryX=0.5;entryY=0;entryDx=0;entryDy=0;" edge="1" parent="1" source="aWqV9zy5l340k6JrbE5z-58" target="aWqV9zy5l340k6JrbE5z-66">
          <mxGeometry width="50" height="50" relative="1" as="geometry">
            <mxPoint x="168" y="715" as="sourcePoint" />
            <mxPoint x="168" y="793" as="targetPoint" />
          </mxGeometry>
        </mxCell>
        <mxCell id="aWqV9zy5l340k6JrbE5z-75" value="&lt;font style=&quot;font-size: 15px;&quot; color=&quot;#666666&quot;&gt;&lt;b&gt;面試&lt;/b&gt;&lt;/font&gt;" style="rounded=1;whiteSpace=wrap;html=1;arcSize=50;fillColor=#FFCCB3;strokeColor=#FFCCB3;" vertex="1" parent="1">
          <mxGeometry x="120" y="772.5" width="75" height="35" as="geometry" />
        </mxCell>
        <mxCell id="aWqV9zy5l340k6JrbE5z-77" value="&lt;font size=&quot;1&quot; color=&quot;#666666&quot;&gt;&lt;b style=&quot;font-size: 13px;&quot;&gt;匹配成功&lt;/b&gt;&lt;/font&gt;" style="rhombus;whiteSpace=wrap;html=1;fillColor=#FFCCB3;strokeColor=#FFCCB3;" vertex="1" parent="1">
          <mxGeometry x="-23.75" y="760" width="90" height="60" as="geometry" />
        </mxCell>
        <mxCell id="aWqV9zy5l340k6JrbE5z-79" value="" style="endArrow=open;html=1;rounded=0;exitX=1;exitY=0.5;exitDx=0;exitDy=0;strokeColor=#999999;strokeWidth=2;endFill=0;entryX=0;entryY=0.5;entryDx=0;entryDy=0;" edge="1" parent="1" source="aWqV9zy5l340k6JrbE5z-77" target="aWqV9zy5l340k6JrbE5z-75">
          <mxGeometry width="50" height="50" relative="1" as="geometry">
            <mxPoint x="11" y="740" as="sourcePoint" />
            <mxPoint x="11.55749999999989" y="770.3999999999999" as="targetPoint" />
          </mxGeometry>
        </mxCell>
        <mxCell id="aWqV9zy5l340k6JrbE5z-81" value="" style="edgeStyle=elbowEdgeStyle;elbow=horizontal;endArrow=open;html=1;curved=0;rounded=0;endSize=8;startSize=8;exitX=0;exitY=0.5;exitDx=0;exitDy=0;entryX=0;entryY=0.5;entryDx=0;entryDy=0;strokeColor=#999999;strokeWidth=2;endFill=0;" edge="1" parent="1" source="aWqV9zy5l340k6JrbE5z-77" target="aWqV9zy5l340k6JrbE5z-36">
          <mxGeometry width="50" height="50" relative="1" as="geometry">
            <mxPoint x="-29.370000000000005" y="705" as="sourcePoint" />
            <mxPoint x="-29.370000000000005" y="635" as="targetPoint" />
            <Array as="points">
              <mxPoint x="-40" y="620" />
              <mxPoint x="-50" y="670" />
            </Array>
          </mxGeometry>
        </mxCell>
        <mxCell id="aWqV9zy5l340k6JrbE5z-84" value="" style="edgeStyle=elbowEdgeStyle;elbow=vertical;endArrow=open;html=1;curved=0;rounded=0;endSize=8;startSize=8;entryX=0.5;entryY=0;entryDx=0;entryDy=0;exitX=0.25;exitY=1;exitDx=0;exitDy=0;strokeColor=#999999;strokeWidth=2;endFill=0;" edge="1" parent="1" source="aWqV9zy5l340k6JrbE5z-29" target="aWqV9zy5l340k6JrbE5z-31">
          <mxGeometry width="50" height="50" relative="1" as="geometry">
            <mxPoint x="-161.25" y="430" as="sourcePoint" />
            <mxPoint x="-111.25" y="380" as="targetPoint" />
          </mxGeometry>
        </mxCell>
        <mxCell id="aWqV9zy5l340k6JrbE5z-85" value="" style="edgeStyle=elbowEdgeStyle;elbow=vertical;endArrow=open;html=1;curved=0;rounded=0;endSize=8;startSize=8;entryX=0.5;entryY=0;entryDx=0;entryDy=0;exitX=0.75;exitY=1;exitDx=0;exitDy=0;strokeColor=#999999;strokeWidth=2;endFill=0;" edge="1" parent="1" source="aWqV9zy5l340k6JrbE5z-29" target="aWqV9zy5l340k6JrbE5z-32">
          <mxGeometry width="50" height="50" relative="1" as="geometry">
            <mxPoint x="-108.75" y="380" as="sourcePoint" />
            <mxPoint x="-158.75" y="430" as="targetPoint" />
          </mxGeometry>
        </mxCell>
        <mxCell id="aWqV9zy5l340k6JrbE5z-86" value="" style="edgeStyle=elbowEdgeStyle;elbow=vertical;endArrow=open;html=1;curved=0;rounded=0;endSize=8;startSize=8;entryX=1;entryY=0.5;entryDx=0;entryDy=0;exitX=1;exitY=0.5;exitDx=0;exitDy=0;strokeColor=#999999;strokeWidth=2;endFill=0;" edge="1" parent="1" source="aWqV9zy5l340k6JrbE5z-57" target="aWqV9zy5l340k6JrbE5z-49">
          <mxGeometry width="50" height="50" relative="1" as="geometry">
            <mxPoint x="500" y="460" as="sourcePoint" />
            <mxPoint x="450" y="510" as="targetPoint" />
            <Array as="points">
              <mxPoint x="340" y="490" />
            </Array>
          </mxGeometry>
        </mxCell>
        <mxCell id="aWqV9zy5l340k6JrbE5z-87" value="" style="edgeStyle=elbowEdgeStyle;elbow=vertical;endArrow=open;html=1;curved=0;rounded=0;endSize=8;startSize=8;entryX=0.5;entryY=0;entryDx=0;entryDy=0;exitX=0.25;exitY=1;exitDx=0;exitDy=0;strokeColor=#999999;strokeWidth=2;endFill=0;" edge="1" parent="1" source="aWqV9zy5l340k6JrbE5z-38" target="aWqV9zy5l340k6JrbE5z-37">
          <mxGeometry width="50" height="50" relative="1" as="geometry">
            <mxPoint x="-132" y="400" as="sourcePoint" />
            <mxPoint x="-182" y="450" as="targetPoint" />
          </mxGeometry>
        </mxCell>
        <mxCell id="aWqV9zy5l340k6JrbE5z-88" value="" style="edgeStyle=elbowEdgeStyle;elbow=vertical;endArrow=open;html=1;curved=0;rounded=0;endSize=8;startSize=8;entryX=0.5;entryY=0;entryDx=0;entryDy=0;exitX=0.75;exitY=1;exitDx=0;exitDy=0;strokeColor=#999999;strokeWidth=2;endFill=0;" edge="1" parent="1" source="aWqV9zy5l340k6JrbE5z-38" target="aWqV9zy5l340k6JrbE5z-36">
          <mxGeometry width="50" height="50" relative="1" as="geometry">
            <mxPoint x="-122" y="410" as="sourcePoint" />
            <mxPoint x="-172" y="460" as="targetPoint" />
          </mxGeometry>
        </mxCell>
        <mxCell id="aWqV9zy5l340k6JrbE5z-89" value="" style="edgeStyle=elbowEdgeStyle;elbow=vertical;endArrow=open;html=1;curved=0;rounded=0;endSize=8;startSize=8;entryX=0.5;entryY=0;entryDx=0;entryDy=0;exitX=0.25;exitY=1;exitDx=0;exitDy=0;strokeColor=#999999;strokeWidth=2;endFill=0;" edge="1" parent="1" source="aWqV9zy5l340k6JrbE5z-56" target="aWqV9zy5l340k6JrbE5z-58">
          <mxGeometry width="50" height="50" relative="1" as="geometry">
            <mxPoint x="-112" y="420" as="sourcePoint" />
            <mxPoint x="-162" y="470" as="targetPoint" />
          </mxGeometry>
        </mxCell>
        <mxCell id="aWqV9zy5l340k6JrbE5z-90" value="" style="edgeStyle=elbowEdgeStyle;elbow=vertical;endArrow=open;html=1;curved=0;rounded=0;endSize=8;startSize=8;entryX=0.5;entryY=0;entryDx=0;entryDy=0;exitX=0.75;exitY=1;exitDx=0;exitDy=0;strokeColor=#999999;strokeWidth=2;endFill=0;" edge="1" parent="1" source="aWqV9zy5l340k6JrbE5z-56" target="aWqV9zy5l340k6JrbE5z-57">
          <mxGeometry width="50" height="50" relative="1" as="geometry">
            <mxPoint x="-102" y="430" as="sourcePoint" />
            <mxPoint x="-152" y="480" as="targetPoint" />
          </mxGeometry>
        </mxCell>
        <mxCell id="aWqV9zy5l340k6JrbE5z-91" value="&lt;b&gt;&lt;font style=&quot;font-size: 15px;&quot; color=&quot;#666666&quot;&gt;否&lt;/font&gt;&lt;/b&gt;" style="text;html=1;strokeColor=none;fillColor=none;align=center;verticalAlign=middle;whiteSpace=wrap;rounded=0;" vertex="1" parent="1">
          <mxGeometry x="-57.5" y="760" width="60" height="30" as="geometry" />
        </mxCell>
        <mxCell id="aWqV9zy5l340k6JrbE5z-92" value="&lt;b&gt;&lt;font style=&quot;font-size: 15px;&quot; color=&quot;#666666&quot;&gt;是&lt;/font&gt;&lt;/b&gt;" style="text;html=1;strokeColor=none;fillColor=none;align=center;verticalAlign=middle;whiteSpace=wrap;rounded=0;" vertex="1" parent="1">
          <mxGeometry x="45" y="760" width="60" height="30" as="geometry" />
        </mxCell>
        <mxCell id="aWqV9zy5l340k6JrbE5z-93" value="&lt;font style=&quot;font-size: 15px;&quot; color=&quot;#666666&quot;&gt;&lt;b&gt;使用體驗回饋&lt;/b&gt;&lt;/font&gt;" style="rounded=1;whiteSpace=wrap;html=1;arcSize=50;fillColor=#FFCCB3;strokeColor=#FFCCB3;" vertex="1" parent="1">
          <mxGeometry x="244.06" y="766.25" width="75" height="47.5" as="geometry" />
        </mxCell>
        <mxCell id="aWqV9zy5l340k6JrbE5z-94" value="" style="ellipse;whiteSpace=wrap;html=1;aspect=fixed;fillColor=#FF8C80;strokeColor=#FF8C80;" vertex="1" parent="1">
          <mxGeometry x="360" y="780" width="20" height="20" as="geometry" />
        </mxCell>
        <mxCell id="aWqV9zy5l340k6JrbE5z-95" value="" style="endArrow=open;html=1;rounded=0;exitX=1;exitY=0.5;exitDx=0;exitDy=0;strokeColor=#999999;strokeWidth=2;endFill=0;entryX=0;entryY=0.5;entryDx=0;entryDy=0;" edge="1" parent="1" source="aWqV9zy5l340k6JrbE5z-75" target="aWqV9zy5l340k6JrbE5z-93">
          <mxGeometry width="50" height="50" relative="1" as="geometry">
            <mxPoint x="168" y="715" as="sourcePoint" />
            <mxPoint x="168" y="783" as="targetPoint" />
          </mxGeometry>
        </mxCell>
        <mxCell id="aWqV9zy5l340k6JrbE5z-96" value="" style="endArrow=open;html=1;rounded=0;exitX=1;exitY=0.5;exitDx=0;exitDy=0;strokeColor=#999999;strokeWidth=2;endFill=0;entryX=0;entryY=0.5;entryDx=0;entryDy=0;" edge="1" parent="1" source="aWqV9zy5l340k6JrbE5z-93" target="aWqV9zy5l340k6JrbE5z-94">
          <mxGeometry width="50" height="50" relative="1" as="geometry">
            <mxPoint x="178" y="725" as="sourcePoint" />
            <mxPoint x="178" y="793" as="targetPoint" />
          </mxGeometry>
        </mxCell>
      </root>
    </mxGraphModel>
  </diagram>
</mxfile>
